<svg xmlns="http://www.w3.org/2000/svg" xmlns:xlink="http://www.w3.org/1999/xlink"><defs>
<clipPath id="clip0_1_406">
<rect width="98" height="16" fill="white"/>
</clipPath>

<clipPath id="clip0_1_382">
<rect width="122" height="12" fill="white"/>
</clipPath>

<clipPath id="clip0_1_323">
<rect width="72" height="16" fill="white"/>
</clipPath>

<clipPath id="clip0_1_336">
<rect width="104" height="12" fill="white"/>
</clipPath>

<clipPath id="clip0_1_17">
<rect width="131" height="32" fill="white"/>
</clipPath>

<clipPath id="clip0_101_305">
<rect width="51.8" height="50.4" fill="white" transform="translate(10 10.5)"/>
</clipPath>

<clipPath id="clip0_44_4516">
<rect width="130" height="127" fill="white"/>
</clipPath>
</defs><symbol id="IMAGEinvoice2go" viewBox="0 0 98 16">
<g clip-path="url(#clip0_1_406)">
<path fill-rule="evenodd" clip-rule="evenodd" d="M20.0034 0.0128598L0.129033 7.93268C0.0891417 7.94928 0.0558411 7.97861 0.0343076 8.01613C0.0117417 8.05003 -0.000201261 8.08992 1.04102e-05 8.13067C-0.000403888 8.17145 0.0115566 8.2114 0.0343076 8.24521C0.0571765 8.27968 0.0903296 8.30602 0.129033 8.32049L6.02977 10.4526C6.06135 10.4653 6.09577 10.4692 6.1294 10.464C6.1624 10.4588 6.19372 10.4459 6.22086 10.4264L17.4148 2.25462C17.4176 2.25341 17.4207 2.25278 17.4238 2.25278C17.4269 2.25278 17.4299 2.25341 17.4328 2.25462C17.439 2.25629 17.4447 2.25969 17.4491 2.26444C17.4502 2.26703 17.4507 2.26981 17.4507 2.27262C17.4507 2.27543 17.4502 2.27821 17.4491 2.2808C17.4514 2.28659 17.4514 2.29302 17.4491 2.2988L7.54048 10.9337C7.51763 10.9536 7.49926 10.9781 7.48659 11.0057C7.47472 11.0335 7.46915 11.0637 7.47025 11.094V15.6921C7.46907 15.7337 7.4817 15.7746 7.50618 15.8083C7.53068 15.8425 7.56479 15.8687 7.60418 15.8835C7.64361 15.8976 7.68644 15.8988 7.7266 15.887C7.76676 15.8753 7.80221 15.8512 7.82792 15.8181L10.6877 12.2869C10.7143 12.2546 10.7502 12.2312 10.7905 12.2198C10.8309 12.2067 10.8743 12.2067 10.9147 12.2198L14.56 13.5436C14.6081 13.5632 14.6621 13.5632 14.7102 13.5436C14.7575 13.5218 14.7953 13.4834 14.8164 13.4356L20.268 0.277945C20.2826 0.241598 20.286 0.201707 20.2778 0.163402C20.2709 0.124268 20.2521 0.0882405 20.2239 0.0603133C20.1966 0.0314847 20.1613 0.0115432 20.1226 0.0030805C20.0838 -0.00538222 20.0435 -0.00197483 20.0067 0.0128598" fill="#131416"/>
<path d="M26.2848 1.60889H24.4883L24.5144 12.5723H26.3109L26.2848 1.60889Z" fill="#131416"/>
<path d="M31.9403 4.68359C31.0322 4.68359 30.2009 5.01085 29.68 5.66538V4.84722H27.9863L28.0059 12.5707H29.6995L29.6865 7.45716C29.8445 7.08814 30.1086 6.77464 30.4451 6.55664C30.7817 6.33864 31.1754 6.22604 31.5761 6.23319C32.654 6.23319 33.2713 7.00062 33.2746 8.22132L33.2844 12.5707H34.978L34.9666 7.95133C34.9666 5.95501 33.7874 4.69013 31.9403 4.69504" fill="#131416"/>
<path d="M41.9744 4.81399L39.6291 10.227L37.2756 4.82708H35.3975L38.8958 12.5424H40.3902L43.864 4.80908L41.9744 4.81399Z" fill="#131416"/>
<path d="M48.0685 4.64613C47.0815 4.6625 46.1359 5.04575 45.4151 5.72146C44.6943 6.39718 44.2498 7.31714 44.168 8.30273C44.0862 9.28832 44.3728 10.2692 44.9723 11.055C45.5717 11.8407 46.4412 12.3753 47.4119 12.5548C48.3826 12.7343 49.3853 12.546 50.2252 12.0265C51.0651 11.507 51.6824 10.6933 51.9572 9.74336C52.232 8.79346 52.1446 7.77514 51.7122 6.88612C51.2797 5.99711 50.5329 5.30083 49.6168 4.93248C49.125 4.73414 48.5985 4.63676 48.0685 4.64613ZM48.0832 11.1031C46.7146 11.1031 45.7559 10.0427 45.7543 8.66822C45.7526 7.2937 46.6983 6.22518 48.0718 6.21373C49.4453 6.20227 50.3844 7.2757 50.3877 8.65022C50.3909 10.0247 49.4388 11.0916 48.0881 11.0949L48.0832 11.1031Z" fill="#131416"/>
<path d="M55.0091 4.77686H53.3154L53.3367 12.5003H55.0287L55.0091 4.77686Z" fill="#131416"/>
<path d="M55.0091 1.79883H53.3154V3.36643H55.0091V1.79883Z" fill="#131416"/>
<path d="M60.4084 6.19049C60.8533 6.18739 61.2896 6.31356 61.6644 6.55374C62.0391 6.79391 62.3364 7.13779 62.5202 7.54373L63.99 6.73866C63.6458 6.08609 63.1278 5.54185 62.4936 5.16634C61.8593 4.79084 61.1336 4.59877 60.397 4.61143C58.0942 4.61471 56.3467 6.35412 56.3467 8.64335C56.3467 10.9325 58.1187 12.6539 60.4297 12.6507C61.1661 12.6609 61.8909 12.4661 62.5233 12.0879C63.1556 11.7097 63.6708 11.163 64.0113 10.5087L62.5316 9.70369C62.3505 10.1111 62.0551 10.457 61.6813 10.6993C61.3076 10.9416 60.8716 11.0698 60.4264 11.0683C59.0578 11.0683 58.0844 10.008 58.0811 8.63353C58.0779 7.25901 59.0464 6.19049 60.4166 6.17904" fill="#131416"/>
<path d="M68.9064 4.5918C66.566 4.5918 64.8854 6.34922 64.8985 8.62044C64.8985 10.962 66.5872 12.6327 68.9227 12.6278C70.5314 12.6278 71.74 11.9241 72.4276 10.8278L71.1406 9.90496C70.7421 10.584 70.0153 11.0814 68.9423 11.0847C67.6652 11.0847 66.646 10.2551 66.566 8.98861L72.6089 8.97389C72.6236 8.72844 72.6236 8.58771 72.6236 8.41754C72.6236 5.93359 70.9201 4.59344 68.9048 4.59671L68.9064 4.5918ZM66.6362 7.74991C66.8649 6.60449 67.8611 6.03013 68.8492 6.03013C69.8373 6.03013 70.7274 6.62739 70.9152 7.73846L66.6362 7.74991Z" fill="#131416"/>
<path d="M93.9901 4.53088H93.9298C93.4033 4.52675 92.8812 4.62756 92.3938 4.82744C91.9065 5.02732 91.4637 5.32229 91.0913 5.6952C90.7188 6.0681 90.424 6.51148 90.2241 6.99957C90.0242 7.48765 89.9232 8.01068 89.9269 8.53825V8.55952C89.9236 9.08834 90.0255 9.61251 90.2267 10.1014C90.4279 10.5903 90.7244 11.0341 91.0987 11.4069C91.4731 11.7797 91.9179 12.074 92.407 12.2726C92.8962 12.4712 93.42 12.5701 93.9478 12.5636H93.9772C94.5046 12.5709 95.0281 12.4725 95.517 12.2741C96.0059 12.0757 96.4502 11.7814 96.8239 11.4084C97.1973 11.0358 97.4931 10.5924 97.6938 10.1042C97.8946 9.6159 97.9964 9.09249 97.9932 8.56443V8.53825C97.9963 8.01146 97.8948 7.48932 97.6946 7.00221C97.4944 6.51509 97.1995 6.07273 96.8271 5.70086C96.4551 5.3283 96.0129 5.03358 95.5261 4.83384C95.0394 4.63411 94.5179 4.53335 93.9919 4.53743L93.9901 4.53088ZM93.9707 10.9944C92.6004 10.9944 91.645 9.93403 91.6417 8.56116C91.6384 7.18828 92.5906 6.11648 93.9576 6.10667C95.3246 6.09685 96.2702 7.16864 96.2735 8.54316C96.2767 9.91767 95.3246 10.9846 93.9707 10.9878V10.9944Z" fill="#131416"/>
<path d="M86.9951 4.70312V5.41328C86.4545 4.85857 85.6526 4.55258 84.7299 4.55421C82.4989 4.55421 80.8853 6.27563 80.869 8.44212C80.8583 8.9547 80.9512 9.46415 81.142 9.93987C81.3327 10.4155 81.6175 10.8477 81.9792 11.2104C82.3409 11.5731 82.772 11.8588 83.2466 12.0503C83.7213 12.2419 84.2297 12.3353 84.7413 12.3251C85.6673 12.3251 86.466 11.9978 87.0033 11.4235V12.3382C87.0033 13.5409 86.35 14.1839 85.4648 14.3803C83.26 14.7763 81.8897 14.1103 81.8897 14.1103L81.3491 15.4979C82.1364 15.9888 84.578 16.1295 85.7114 15.8792C87.3446 15.5912 88.7034 14.521 88.6985 12.3529L88.6838 4.70148L86.9951 4.70312ZM87.0065 9.67755C86.788 10.0234 86.4825 10.3057 86.1208 10.4961C85.7591 10.6865 85.3538 10.7783 84.9455 10.7624C83.6079 10.7624 82.6345 9.76428 82.6181 8.43721C82.6098 8.1286 82.6654 7.8216 82.7815 7.5356C82.8944 7.24897 83.0644 6.9884 83.2812 6.7698C83.498 6.55117 83.7569 6.37897 84.0421 6.26364C84.3274 6.14832 84.633 6.09227 84.9406 6.0989C85.3466 6.08275 85.75 6.17185 86.1116 6.35761C86.4733 6.54336 86.781 6.81948 87.0049 7.15924L87.0065 9.67755Z" fill="#131416"/>
<path d="M75.7724 10.9947L78.0817 7.85297C78.5472 7.24262 79.2903 6.21665 79.4291 5.99247C80.0726 4.92721 80.151 3.80798 79.5925 2.69037C79.1368 1.78057 78.3316 1.33712 77.3403 1.21767C75.9504 1.04095 74.505 1.68566 73.8518 3.00454C73.6998 3.29164 73.6003 3.60362 73.5578 3.92579L75.0391 4.25306C75.062 4.18924 75.0832 4.13688 75.0979 4.08942C75.1683 3.81981 75.2982 3.56946 75.4779 3.35679C75.6577 3.14411 75.8828 2.97454 76.1366 2.86054C76.6772 2.61346 77.453 2.71 77.8711 3.07162C78.5717 3.68198 78.5619 4.70795 78.054 5.36248C77.9691 5.47375 73.5855 11.0699 73.5855 11.0699C73.5443 11.1188 73.5223 11.1811 73.5235 11.245V12.4837L80.0285 12.4674V10.9947H75.7724Z" fill="#131416"/>
</g>

</symbol><symbol id="IMAGErpublica" viewBox="0 0 122 12">
<g clip-path="url(#clip0_1_382)">
<path d="M12.3373 4.08003C12.3373 2.08976 11.007 0.281946 8.48496 0.267266C6.78796 0.267266 1.69699 0.250488 0 0.250488V11.7706H2.01884V7.92635H7.35948L10.4804 11.7706H12.8796V11.6238L9.63774 7.69566C11.6722 7.25104 12.3451 5.65715 12.3451 4.08003H12.3373ZM2.02664 5.96754V2.2869H8.49276C9.76062 2.2869 10.3263 3.20758 10.3263 4.12827C10.3263 5.04895 9.77623 5.96963 8.49276 5.96963L2.02664 5.96754Z" fill="#131416"/>
<path d="M26.3229 0.254683C24.6415 0.254683 19.5661 0.271461 17.8847 0.271461V11.7748H19.9016V8.38564H26.3229C31.566 8.38564 31.5504 0.250488 26.3229 0.250488V0.254683ZM26.3229 6.39747H19.9016V2.32045H26.3229C28.8898 2.32045 28.9054 6.39747 26.3229 6.39747Z" fill="#131416"/>
<path d="M63.1982 5.82314C64.1911 5.34497 64.589 4.4914 64.589 3.60218C64.589 1.29522 63.0149 0.267578 60.9044 0.267578H52.435V11.7709H60.9044C63.1202 11.7709 64.9089 10.9509 64.9089 8.38596C64.9089 7.66241 64.4505 6.2321 63.1982 5.82314ZM54.4207 2.23898H60.9024C62.1878 2.23898 62.5838 3.1261 62.5838 3.65251C62.5838 4.30894 62.1722 4.88568 60.9024 4.88568H54.4227L54.4207 2.23898ZM60.9024 9.75126H54.4227V6.79206H60.9044C61.7295 6.79206 62.9076 7.33315 62.9076 8.36918C62.9076 9.45345 61.7373 9.75126 60.9044 9.75126" fill="#131416"/>
<path d="M71.7554 0.267578H69.7366V11.773H80.652V9.76593H71.7554V0.267578Z" fill="#131416"/>
<path d="M87.4985 0.267578H85.4953V11.773H87.4985V0.267578Z" fill="#131416"/>
<path d="M102.625 8.59344C102.336 8.90217 102.008 9.16489 101.65 9.37361C101.247 9.60346 100.819 9.77819 100.376 9.89372C99.8728 10.0234 99.3566 10.0868 98.8391 10.0825C98.1603 10.0945 97.4845 9.98387 96.8397 9.7553C96.3067 9.56238 95.8138 9.25963 95.3885 8.86397C95.0072 8.5016 94.7049 8.05336 94.503 7.55111C94.306 7.06113 94.2044 6.53295 94.2045 5.99915C94.2034 5.45983 94.305 4.92597 94.503 4.43042C94.7049 3.92818 95.0072 3.47993 95.3885 3.11755C95.814 2.72189 96.3087 2.42169 96.8436 2.23462C97.4886 2.01084 98.1634 1.90313 98.841 1.91584C99.3344 1.91336 99.8265 1.97106 100.308 2.08781C100.735 2.19088 101.15 2.34567 101.545 2.5492C101.9 2.73335 102.229 2.97291 102.52 3.26017C102.695 3.43676 102.854 3.63133 102.994 3.8411L104.695 2.83023C104.479 2.49485 104.231 2.18547 103.953 1.90745C103.56 1.51252 103.12 1.17542 102.645 0.904974C102.116 0.606781 101.553 0.382651 100.971 0.238052C100.307 0.0751899 99.6275 -0.00433789 98.9463 0.00106343C97.9688 -0.0150005 96.9961 0.151038 96.0712 0.491819C95.2944 0.779519 94.576 1.22445 93.9548 1.80259C93.4003 2.32673 92.9561 2.97195 92.6518 3.69523C92.3475 4.4185 92.1901 5.20322 92.1901 5.99706C92.1901 6.79089 92.3475 7.57561 92.6518 8.29889C92.9561 9.02217 93.4003 9.66738 93.9548 10.1915C94.5754 10.7706 95.294 11.2156 96.0712 11.5023C96.992 11.8438 97.9607 12.0119 98.9346 11.9993C99.6373 12.0055 100.338 11.9203 101.022 11.7456C101.617 11.591 102.191 11.3534 102.728 11.0388C103.213 10.7574 103.658 10.4044 104.051 9.99019C104.336 9.68635 104.588 9.3478 104.8 8.98142L103.091 7.97475C102.958 8.20232 102.802 8.41333 102.625 8.60392" fill="#131416"/>
<path d="M43.9033 0.254884C43.6764 0.254608 43.4517 0.302412 43.2421 0.395564C43.0324 0.488716 42.8419 0.625387 42.6814 0.797765C42.5208 0.970142 42.3935 1.17484 42.3066 1.40017C42.2198 1.62549 42.1751 1.86702 42.1751 2.11093H45.3954V6.08099C45.3356 6.60855 45.2271 7.12842 45.0716 7.63294C44.8697 8.13518 44.5674 8.58343 44.1861 8.9458C43.7604 9.34191 43.2667 9.6447 42.7329 9.83713C41.6679 10.2907 40.482 10.2907 39.417 9.83713C38.8832 9.6447 38.3895 9.34191 37.9638 8.9458C37.5825 8.58343 37.2801 8.13518 37.0782 7.63294C36.9228 7.12842 36.8143 6.60855 36.7544 6.08099V0.254884H34.761V6.08099C34.7563 6.87467 34.9106 7.66013 35.2136 8.38393C35.5165 9.10772 35.9609 9.75285 36.5165 10.2754C37.1381 10.8524 37.8573 11.2953 38.6348 11.5799C40.2195 12.1331 41.9264 12.1331 43.5112 11.5799C44.2884 11.2932 45.007 10.8482 45.6276 10.2691C46.1832 9.74656 46.6275 9.10142 46.9305 8.37763C47.2334 7.65384 47.3878 6.86838 47.3831 6.0747V0.254884H43.9033Z" fill="#131416"/>
<path d="M114.502 2.16138L109.789 11.7709H107.782L113.384 0.338883V0.267578H116.361L122 11.7709H119.993L118.795 9.3381H115.204C114.971 9.3381 114.74 9.28868 114.524 9.19267C114.309 9.09665 114.113 8.95592 113.948 8.77851C113.783 8.6011 113.652 8.39047 113.563 8.15867C113.473 7.92687 113.427 7.67843 113.427 7.42753H117.855L115.267 2.16138H114.502Z" fill="#131416"/>
</g>

</symbol><symbol id="IMAGEtribal" viewBox="0 0 72 16">
<g clip-path="url(#clip0_1_323)">
<path d="M17.6698 3.33359L13.3669 0.391617C13.0002 0.141322 12.5614 0.00683594 12.1114 0.00683594C11.6614 0.00683594 11.2226 0.141322 10.8559 0.391617L9.45509 1.3484L7.93204 2.38668L6.55307 3.33359C6.27225 3.52606 6.04327 3.78 5.88511 4.07435C5.72695 4.3687 5.64416 4.695 5.64361 5.02618V10.9879C5.64381 11.0647 5.62531 11.1406 5.58958 11.2094C5.55385 11.2782 5.50188 11.338 5.4378 11.3842L3.94434 12.3718L5.37477 13.3471L6.38327 12.6792C6.66415 12.4871 6.89319 12.2334 7.05137 11.9392C7.20954 11.6451 7.29229 11.3189 7.29272 10.9879V5.02618C7.29291 4.94711 7.31259 4.8692 7.35015 4.79882C7.38771 4.72845 7.44209 4.66759 7.50883 4.62124L11.8117 1.6805C11.8991 1.6204 12.0039 1.58807 12.1114 1.58807C12.2189 1.58807 12.3238 1.6204 12.4111 1.6805L13.5341 2.44717L14.9633 3.42248L16.7153 4.62001C16.7827 4.6658 16.8377 4.7265 16.8755 4.79698C16.9134 4.86747 16.933 4.94566 16.9327 5.02495V10.9879C16.9328 11.0669 16.9131 11.1449 16.8753 11.2151C16.8374 11.2854 16.7826 11.3459 16.7153 11.3916L12.4111 14.3212C12.3166 14.3837 12.2035 14.4152 12.0887 14.411C11.974 14.4067 11.8637 14.367 11.7744 14.2977L10.955 13.8039L9.51298 14.8027L10.8559 15.615C11.2226 15.8655 11.6614 16.0001 12.1114 16.0001C12.5614 16.0001 13.0003 15.8655 13.3669 15.615L17.6698 12.6743C17.9499 12.4826 18.1786 12.2297 18.3367 11.9365C18.4948 11.6432 18.578 11.3181 18.5792 10.9879V5.02618C18.5791 4.69492 18.4965 4.36849 18.3383 4.07407C18.1801 3.77965 17.9509 3.52577 17.6698 3.33359Z" fill="#131416"/>
<path d="M10.6446 13.6176L12.0262 12.6732C12.3062 12.4814 12.5347 12.2284 12.6928 11.9352C12.8509 11.642 12.9341 11.3169 12.9356 10.9868V5.02503C12.9354 4.94784 12.954 4.87168 12.9899 4.80264C13.0259 4.7336 13.0782 4.67362 13.1427 4.6275L14.6323 3.63984L13.2032 2.66454L12.196 3.3312C11.9152 3.52367 11.6864 3.77763 11.5284 4.07201C11.3705 4.36638 11.288 4.69268 11.2878 5.02379V10.9868C11.2879 11.0658 11.2682 11.1438 11.2303 11.214C11.1925 11.2843 11.1377 11.3448 11.0704 11.3905L6.76753 14.3201C6.68013 14.3802 6.57532 14.4125 6.46781 14.4125C6.36029 14.4125 6.25548 14.3802 6.16809 14.3201L5.04509 13.5534L3.61852 12.5818L1.8665 11.3843C1.80012 11.3392 1.7458 11.2797 1.70801 11.2106C1.67023 11.1415 1.65004 11.0648 1.64911 10.9868V5.02503C1.64867 4.94585 1.66807 4.86773 1.70568 4.79725C1.74329 4.72678 1.79801 4.66601 1.86522 4.62009L6.16809 1.67935C6.26351 1.61596 6.37778 1.58398 6.49375 1.58821C6.60972 1.59244 6.72113 1.63265 6.81126 1.70281L7.60623 2.18552L9.06625 1.19787L7.72844 0.387992C7.36181 0.137523 6.92298 0.00292969 6.47295 0.00292969C6.02293 0.00292969 5.58409 0.137523 5.21747 0.387992L0.909455 3.33244C0.628326 3.52462 0.399117 3.7785 0.240922 4.07292C0.0827272 4.36733 0.000126015 4.69377 0 5.02503V10.9868C0.000231532 11.318 0.0828782 11.6444 0.241064 11.9388C0.399251 12.2332 0.628403 12.4871 0.909455 12.6793L5.21232 15.6201C5.57894 15.8706 6.01778 16.0052 6.46781 16.0052C6.91783 16.0052 7.35667 15.8706 7.72329 15.6201L9.1936 14.6152L10.6433 13.6275L10.6446 13.6176Z" fill="#131416"/>
<path d="M28.5109 1.88037H25.3027V3.70383C25.3028 3.90959 25.2192 4.10726 25.0698 4.25482C24.9204 4.40237 24.7169 4.48816 24.5026 4.49395L23.6484 4.51494V6.94827H25.3027V11.3162C25.3027 14.0767 26.4411 14.9705 31.2007 14.673V12.1668C28.7797 12.4051 28.5932 11.7693 28.5932 10.9952V6.94457H31.2007V4.46185H28.5109V1.88037Z" fill="#131416"/>
<path d="M41.4192 0.220703C40.2614 0.220703 39.626 0.467617 39.626 1.77997C39.626 3.09231 40.2589 3.33923 41.4192 3.33923C42.5602 3.33923 43.1557 3.06021 43.1557 1.77997C43.1557 0.462679 42.5602 0.220703 41.4192 0.220703Z" fill="#131416"/>
<path d="M43.0364 4.46191H39.7871V14.5903H43.0364V4.46191Z" fill="#131416"/>
<path d="M51.3951 4.28265C49.7601 4.28265 48.7259 4.81845 48.2294 5.4345V0.549316H45.0225V14.5901C45.0585 14.5901 45.0932 14.5901 45.1292 14.5826H45.2733C45.6324 14.5824 45.9839 14.4836 46.2863 14.2979C46.5888 14.1122 46.8296 13.8473 46.9803 13.5345V13.5271C47.0064 13.474 47.0462 13.4282 47.0959 13.394C47.1456 13.3598 47.2035 13.3383 47.2642 13.3315C47.325 13.3247 47.3865 13.3328 47.4431 13.3552C47.4996 13.3775 47.5493 13.4133 47.5875 13.4592C48.2023 14.174 49.0591 14.6012 50.2759 14.7172C50.5287 14.7508 50.7836 14.7681 51.0388 14.7691C52.8795 14.7691 54.0501 14.0222 54.7512 12.9419C54.7898 12.8839 54.8284 12.8185 54.8644 12.7641L54.9364 12.6333C54.9892 12.537 55.038 12.4394 55.0844 12.3382L55.1165 12.2641C55.1705 12.1407 55.2181 12.0172 55.2632 11.8938C55.2632 11.8802 55.2722 11.8666 55.276 11.853C55.321 11.7209 55.3622 11.5864 55.3969 11.4493C55.3969 11.432 55.4059 11.4172 55.4098 11.4012C55.4381 11.2864 55.4638 11.1703 55.4857 11.0518C55.4947 11.0049 55.505 10.958 55.514 10.911C55.523 10.8641 55.5243 10.837 55.5307 10.7999C55.5998 10.3718 55.6355 9.93933 55.6375 9.50611C55.6375 6.90364 54.665 4.28265 51.3951 4.28265ZM50.2991 12.2061C48.4982 12.2061 48.2088 11.1147 48.2088 9.50611C48.2088 7.95672 48.4365 6.82463 50.2785 6.82463C52.037 6.82463 52.3264 7.93574 52.3264 9.50611C52.3264 11.0938 52.037 12.2061 50.2991 12.2061Z" fill="#131416"/>
<path d="M61.7616 4.28271C57.9128 4.28271 57.0021 5.7716 57.0021 7.93704H60.1472C60.1472 7.12222 60.519 6.52716 61.844 6.52716C63.2512 6.52716 63.7066 7.14444 63.7066 8.31358L60.9332 8.59136C57.9746 8.89012 56.5879 9.70248 56.5879 11.6506C56.5879 13.7753 58.4917 14.7691 60.9744 14.7691C62.581 14.7691 63.6449 14.321 64.3729 13.4741C64.411 13.4279 64.4608 13.3919 64.5175 13.3693C64.5742 13.3468 64.6359 13.3385 64.6969 13.3454C64.7578 13.3522 64.8159 13.3738 64.8657 13.4082C64.9155 13.4426 64.9553 13.4887 64.9814 13.542C65.1321 13.8548 65.3729 14.1197 65.6753 14.3054C65.9778 14.4911 66.3293 14.5899 66.6884 14.5901H66.9341V8.85063C66.9315 6.22839 66.2639 4.28271 61.7616 4.28271ZM61.633 12.5839C60.4534 12.5839 59.9607 12.1469 59.9607 11.5309C59.9607 11.0543 60.3543 10.6975 61.633 10.5778L63.7027 10.3395C63.6834 11.5914 63.0827 12.5839 61.633 12.5839Z" fill="#131416"/>
<path d="M71.9999 0.549316H68.7725V14.5901H71.9999V0.549316Z" fill="#131416"/>
<path d="M38.6835 4.2666C38.5793 4.2666 38.4828 4.27401 38.3825 4.27771C37.5606 4.23036 36.7458 4.4476 36.0671 4.895C35.7738 5.07638 35.5113 5.29998 35.2888 5.55796C35.2504 5.60377 35.2005 5.63946 35.1438 5.66169C35.0871 5.68392 35.0255 5.69196 34.9646 5.68504C34.9038 5.67813 34.8458 5.6565 34.7961 5.62218C34.7464 5.58786 34.7065 5.54197 34.6804 5.48882C34.5285 5.17558 34.2863 4.91068 33.9824 4.72556C33.6785 4.54044 33.3256 4.44285 32.9656 4.44438H32.7199V4.46784H32.7109V14.5913H35.9384V9.40611C35.9384 8.05549 36.3115 6.76537 38.7324 7.00364V4.30241H38.6887C38.6874 4.28018 38.6861 4.2666 38.6835 4.2666Z" fill="#131416"/>
</g>

</symbol><symbol id="IMAGEveroxfloor" viewBox="0 0 104 12">
<g clip-path="url(#clip0_1_336)">
<path d="M4.76174 11.815L0 0.185547H2.43919L5.92472 8.86138L9.43084 0.185547H11.87L7.08428 11.815H4.76174Z" fill="#131416"/>
<path d="M13.97 4.97793H21.1229C20.9157 4.19242 20.4547 3.49402 19.809 2.98748C19.1785 2.47778 18.3854 2.20234 17.5687 2.20948C16.7308 2.18877 15.9125 2.46091 15.2599 2.97737C14.6205 3.48941 14.1678 4.19149 13.97 4.97793ZM13.253 10.2589C12.6812 9.70794 12.2296 9.04845 11.9258 8.32061C11.6221 7.59277 11.4725 6.81181 11.4862 6.02536C11.473 5.23756 11.6204 4.45512 11.9197 3.72404C12.219 2.99296 12.6641 2.32802 13.229 1.76828C13.7764 1.19619 14.44 0.743218 15.1769 0.438646C15.9138 0.134074 16.7076 -0.0153212 17.507 0.000107623C19.0682 -0.0175493 20.577 0.552508 21.7233 1.59314C22.3182 2.12429 22.7933 2.77171 23.1183 3.49383C23.4432 4.21595 23.6108 4.9968 23.6101 5.78624C23.6121 6.13541 23.5891 6.48428 23.5415 6.83031H13.97C14.0056 7.24036 14.1233 7.63947 14.3164 8.00474C14.5095 8.37001 14.7742 8.69426 15.0952 8.95885C15.7648 9.51512 16.62 9.80897 17.4967 9.78399C18.0275 9.80277 18.5562 9.70865 19.0465 9.5081C19.5368 9.30754 19.9771 9.00529 20.3373 8.62206L23.1092 8.64563C22.5939 9.64653 21.8067 10.4881 20.8347 11.0773C19.8575 11.6857 18.7225 12.0049 17.5653 11.9967C16.7637 12.0119 15.9674 11.8656 15.2257 11.5666C14.4839 11.2677 13.8125 10.8226 13.253 10.2589Z" fill="#131416"/>
<path d="M25.1846 11.8148V5.75248C25.1846 3.89113 25.642 2.49118 26.5568 1.55265C27.0243 1.08178 27.5876 0.713023 28.2101 0.470439C28.8326 0.227855 29.5002 0.116909 30.1693 0.144848H30.406V2.35759H30.1693C28.3991 2.35759 27.5151 3.48922 27.5174 5.75248V11.8148H25.1846Z" fill="#131416"/>
<path d="M37.3423 2.20925C36.8323 2.19346 36.3246 2.2827 35.8519 2.47122C35.3792 2.65975 34.952 2.94337 34.5978 3.30384C33.893 4.03028 33.4999 4.99502 33.4999 5.9982C33.4999 7.00138 33.893 7.96611 34.5978 8.69255C34.9471 9.05168 35.3688 9.33539 35.836 9.52559C36.3032 9.71579 36.8057 9.80831 37.3114 9.79724C37.8119 9.80959 38.3096 9.71887 38.7722 9.53092C39.2349 9.34298 39.6523 9.06199 39.9976 8.70603C40.6901 7.97351 41.0749 7.01106 41.0749 6.01167C41.0749 5.01228 40.6901 4.04983 39.9976 3.31731C39.653 2.96024 39.2358 2.67827 38.773 2.4897C38.3102 2.30113 37.8123 2.21018 37.3114 2.22273L37.3423 2.20925ZM32.9922 1.74447C33.9928 0.759377 35.3103 0.145429 36.7204 0.00726992C38.1304 -0.130889 39.5456 0.215295 40.7247 0.98682C41.9039 1.75834 42.774 2.90745 43.1867 4.23827C43.5995 5.56909 43.5293 6.99924 42.9882 8.28496C42.4471 9.57068 41.4686 10.6324 40.2193 11.2891C38.9701 11.9458 37.5276 12.1569 36.1376 11.8863C34.7476 11.6158 33.4963 10.8804 32.5968 9.80544C31.6973 8.73051 31.2053 7.38259 31.2048 5.99145C31.1921 5.20132 31.3441 4.41699 31.6515 3.68665C31.9589 2.9563 32.4151 2.29538 32.9922 1.74447Z" fill="#131416"/>
<path d="M55.4529 11.815H52.801L49.7443 7.65228L46.6876 11.815H44.0117L48.4167 5.7696L44.3651 0.185547H46.9964L49.7203 3.90713L52.4923 0.185547H55.1236L51.072 5.7696L55.4529 11.815Z" fill="#131416"/>
<path d="M58.146 11.778V7.88802H56.0225V6.54084H58.146V6.12659L58.1941 4.70867C58.3221 3.29638 58.7727 2.18721 59.5457 1.38115C60.3635 0.556968 61.4637 0.0600978 62.6333 -0.0131836V1.40809C61.8582 1.52495 61.1455 1.89378 60.6092 2.45551C60.0513 3.08317 59.7292 3.87958 59.6967 4.71204L59.6487 6.12995V6.54421H63.3846V7.89139H59.6624V11.7813L58.146 11.778Z" fill="#131416"/>
<path d="M67.3054 0.188965H65.7891V11.8184H67.3054V0.188965Z" fill="#131416"/>
<path d="M79.22 2.75486C78.8004 2.32362 78.2939 1.98292 77.7328 1.75445C77.1717 1.52599 76.5682 1.41477 75.9609 1.42789C75.3508 1.41706 74.745 1.52924 74.1809 1.75749C73.6168 1.98573 73.1063 2.32519 72.6812 2.75486C71.8199 3.62542 71.338 4.79128 71.338 6.00493C71.338 7.21857 71.8199 8.38443 72.6812 9.255C73.1026 9.68804 73.6104 10.0312 74.173 10.263C74.7355 10.4947 75.3406 10.6102 75.9506 10.6022C76.5558 10.6135 77.1569 10.5018 77.716 10.274C78.2751 10.0462 78.7802 9.70727 79.1994 9.27857C80.0467 8.39822 80.5188 7.23295 80.5188 6.02177C80.5188 4.81059 80.0467 3.64532 79.1994 2.76496L79.22 2.75486ZM71.6143 1.74447C72.6148 0.759377 73.9324 0.145429 75.3424 0.00726992C76.7525 -0.130889 78.1677 0.215295 79.3468 0.98682C80.5259 1.75834 81.396 2.90745 81.8088 4.23827C82.2215 5.56909 82.1514 6.99924 81.6103 8.28496C81.0692 9.57068 80.0906 10.6324 78.8414 11.2891C77.5922 11.9458 76.1497 12.1569 74.7597 11.8863C73.3697 11.6158 72.1183 10.8804 71.2188 9.80544C70.3193 8.73051 69.8274 7.38259 69.8269 5.99145C69.8142 5.20132 69.9662 4.41699 70.2736 3.68665C70.5809 2.9563 71.0372 2.29538 71.6143 1.74447Z" fill="#131416"/>
<path d="M93.9275 2.75486C93.5079 2.32362 93.0015 1.98292 92.4403 1.75445C91.8792 1.52599 91.2758 1.41477 90.6684 1.42789C90.0584 1.41706 89.4526 1.52924 88.8884 1.75749C88.3243 1.98573 87.8139 2.32519 87.3887 2.75486C86.5274 3.62542 86.0456 4.79128 86.0456 6.00493C86.0456 7.21857 86.5274 8.38443 87.3887 9.255C87.8099 9.68836 88.3177 10.0317 88.8802 10.2635C89.4428 10.4953 90.0481 10.6106 90.6582 10.6022C91.2629 10.6138 91.8636 10.5022 92.4222 10.2744C92.9808 10.0466 93.4852 9.70751 93.9036 9.27857C94.7516 8.39861 95.2242 7.23319 95.2242 6.02177C95.2242 4.81035 94.7516 3.64493 93.9036 2.76496L93.9275 2.75486ZM86.3252 1.74447C87.3258 0.759377 88.6434 0.145429 90.0534 0.00726992C91.4634 -0.130889 92.8786 0.215295 94.0578 0.98682C95.2369 1.75834 96.107 2.90745 96.5198 4.23827C96.9325 5.56909 96.8624 6.99924 96.3213 8.28496C95.7802 9.57068 94.8016 10.6324 93.5524 11.2891C92.3032 11.9458 90.8606 12.1569 89.4707 11.8863C88.0807 11.6158 86.8293 10.8804 85.9298 9.80544C85.0303 8.73051 84.5384 7.38259 84.5379 5.99145C84.525 5.2013 84.6769 4.41691 84.9843 3.68653C85.2916 2.95616 85.748 2.29526 86.3252 1.74447Z" fill="#131416"/>
<path d="M98.5488 11.8147V5.78611C98.5488 3.91128 98.9868 2.50011 99.8628 1.5526C100.313 1.07816 100.862 0.70558 101.474 0.460726C102.085 0.215871 102.744 0.104618 103.403 0.134692C103.518 0.132924 103.633 0.139679 103.746 0.154899V1.57617C103.633 1.55791 103.518 1.55001 103.403 1.5526C102.94 1.53382 102.479 1.62078 102.055 1.80661C101.632 1.99244 101.259 2.2721 100.964 2.6236C100.365 3.33536 100.065 4.38953 100.065 5.78611V11.8147H98.5488Z" fill="#131416"/>
<path d="M102.45 10.5214H102.707C102.794 10.5303 102.882 10.5114 102.957 10.4675C102.979 10.4508 102.996 10.4292 103.007 10.4046C103.019 10.38 103.024 10.353 103.022 10.3261C103.023 10.2901 103.012 10.2549 102.992 10.225C102.969 10.1947 102.938 10.1714 102.902 10.1577C102.833 10.1407 102.761 10.1339 102.69 10.1374H102.45V10.5214ZM102.237 11.2455V9.96231H102.69C102.805 9.95617 102.921 9.96753 103.033 9.99599C103.099 10.0198 103.157 10.0633 103.197 10.1206C103.237 10.176 103.258 10.2417 103.259 10.3092C103.26 10.3549 103.251 10.4003 103.233 10.4425C103.216 10.4848 103.19 10.5231 103.156 10.5551C103.083 10.6256 102.985 10.6664 102.882 10.6696C102.924 10.6856 102.962 10.7096 102.995 10.7403C103.068 10.8177 103.132 10.9024 103.187 10.9929L103.348 11.2455H103.091L102.974 11.0434C102.92 10.9306 102.844 10.8288 102.751 10.7437C102.702 10.7104 102.643 10.6949 102.583 10.6999H102.45V11.2455H102.237ZM102.772 9.58847C102.598 9.59015 102.426 9.63534 102.275 9.71981C102.114 9.80302 101.981 9.93064 101.894 10.0869C101.804 10.2382 101.757 10.4102 101.757 10.5854C101.757 10.759 101.803 10.9295 101.89 11.0805C101.978 11.2358 102.109 11.3632 102.268 11.4476C102.421 11.5358 102.595 11.5823 102.772 11.5823C102.949 11.5823 103.123 11.5358 103.276 11.4476C103.435 11.3632 103.566 11.2358 103.654 11.0805C103.738 10.9286 103.783 10.7585 103.784 10.5854C103.784 10.4107 103.738 10.2389 103.65 10.0869C103.562 9.93135 103.43 9.80396 103.269 9.71981C103.124 9.63858 102.96 9.59349 102.793 9.58847H102.772ZM102.772 9.39312C102.981 9.39386 103.186 9.44598 103.369 9.54468C103.561 9.64634 103.719 9.79935 103.825 9.98588C103.93 10.1692 103.985 10.3754 103.986 10.5854C103.987 10.7935 103.931 10.9981 103.825 11.1781C103.723 11.366 103.566 11.5205 103.376 11.6227C103.191 11.7242 102.983 11.7775 102.772 11.7775C102.561 11.7775 102.353 11.7242 102.168 11.6227C101.982 11.5167 101.83 11.3615 101.729 11.1748C101.623 10.9935 101.566 10.7879 101.566 10.5786C101.566 10.3694 101.623 10.1638 101.729 9.98251C101.836 9.79597 101.994 9.64297 102.185 9.54131C102.372 9.44213 102.581 9.39113 102.793 9.39312H102.772Z" fill="#131416"/>
</g>

</symbol><symbol id="Moxageneral" viewBox="0 0 131 32">
<g clip-path="url(#clip0_1_17)">
<path d="M63.5684 7.39453C65.2279 7.39453 66.5598 7.9404 67.5642 9.03214C68.5686 10.1021 69.0708 11.5104 69.0708 13.2572V23.9999H64.6165V13.2572C64.6165 12.6458 64.4746 12.1654 64.1907 11.8161C63.9069 11.4449 63.5357 11.2593 63.0771 11.2593H61.6688C61.0574 11.2593 60.5225 11.4886 60.0639 11.9471C59.6054 12.3838 59.3215 12.9733 59.2124 13.7157V23.9999H54.7581V13.2899C54.7581 12.6786 54.6161 12.1873 54.3323 11.8161C54.0484 11.4449 53.6773 11.2593 53.2187 11.2593H51.9414C51.3082 11.2593 50.7514 11.5432 50.271 12.1109C49.7907 12.6786 49.485 13.421 49.354 14.338V23.9999H44.8997V7.65655H49.0264V9.55618C49.4195 8.90113 49.9217 8.3771 50.533 7.98407C51.1663 7.59105 51.7995 7.39453 52.4327 7.39453H54.2668C55.0528 7.39453 55.7625 7.60196 56.3957 8.01682C57.0507 8.43169 57.5638 9.01031 57.935 9.75269C58.4154 9.01031 58.9831 8.43169 59.6382 8.01682C60.315 7.60196 61.0247 7.39453 61.767 7.39453H63.5684ZM78.656 24.2619C77.2804 24.2619 76.0576 23.9999 74.9877 23.4759C73.9396 22.93 73.1208 22.1658 72.5313 21.1832C71.9636 20.2006 71.6797 19.0652 71.6797 17.777V13.945C71.6797 12.6567 71.9745 11.5213 72.564 10.5388C73.1536 9.53435 73.9724 8.75921 75.0205 8.21334C76.0904 7.66747 77.3131 7.39453 78.6887 7.39453H81.6364C83.012 7.39453 84.2238 7.66747 85.2719 8.21334C86.3418 8.75921 87.1715 9.53435 87.7611 10.5388C88.3506 11.5213 88.6454 12.6567 88.6454 13.945V17.777C88.6454 19.0652 88.3506 20.2006 87.7611 21.1832C87.1715 22.1658 86.3418 22.93 85.2719 23.4759C84.2238 23.9999 83.0011 24.2619 81.6037 24.2619H78.656ZM81.5382 20.4299C82.346 20.4299 82.9902 20.157 83.4705 19.6111C83.9509 19.0434 84.1911 18.3119 84.1911 17.4167V14.2398C84.1911 13.3445 83.9509 12.624 83.4705 12.0781C82.9902 11.5104 82.357 11.2266 81.5709 11.2266H78.7542C77.9682 11.2266 77.335 11.5104 76.8546 12.0781C76.3742 12.624 76.134 13.3445 76.134 14.2398V17.4167C76.134 18.3119 76.3742 19.0434 76.8546 19.6111C77.335 20.157 77.9572 20.4299 78.7215 20.4299H81.5382ZM94.8793 15.7136L88.8857 7.65655H93.864L97.4668 12.5039L101.07 7.65655H106.048L100.054 15.7136L106.244 23.9999H101.266L97.4668 18.8905L93.6675 23.9999H88.6892L94.8793 15.7136ZM112.422 24.2619C110.718 24.2619 109.343 23.8361 108.295 22.9846C107.247 22.133 106.723 21.0085 106.723 19.6111V18.3993C106.723 17.0237 107.269 15.921 108.36 15.0913C109.452 14.2398 110.893 13.814 112.684 13.814H114.681C115.249 13.814 115.861 13.8904 116.516 14.0432C117.171 14.1961 117.771 14.4035 118.317 14.6655V12.9624C118.317 12.4165 118.131 11.9799 117.76 11.6523C117.411 11.303 116.941 11.1283 116.352 11.1283H113.535C112.924 11.1283 112.432 11.2702 112.061 11.5541C111.69 11.8379 111.504 12.22 111.504 12.7004H107.181C107.181 11.1065 107.76 9.82912 108.917 8.86838C110.096 7.88582 111.635 7.39453 113.535 7.39453H116.352C118.273 7.39453 119.824 7.90765 121.003 8.93389C122.182 9.93829 122.771 11.2811 122.771 12.9624V23.9999H118.644V22.0348C118.12 22.7116 117.476 23.2575 116.712 23.6724C115.948 24.0654 115.195 24.2619 114.452 24.2619H112.422ZM114.78 20.8557C115.588 20.8557 116.308 20.6483 116.941 20.2334C117.575 19.8185 118.033 19.2617 118.317 18.563V18.0062C117.968 17.7442 117.476 17.5368 116.843 17.3839C116.232 17.2311 115.577 17.1547 114.878 17.1547H112.815C112.291 17.1547 111.865 17.2857 111.537 17.5477C111.21 17.8097 111.046 18.1591 111.046 18.5958V19.4473C111.046 19.8622 111.221 20.2006 111.57 20.4627C111.941 20.7247 112.422 20.8557 113.011 20.8557H114.78ZM128.077 24.3274C127.269 24.3274 126.614 24.0872 126.111 23.6069C125.631 23.1047 125.391 22.4496 125.391 21.6417C125.391 20.8338 125.631 20.1897 126.111 19.7094C126.614 19.2072 127.269 18.9561 128.077 18.9561C128.885 18.9561 129.529 19.2072 130.009 19.7094C130.511 20.1897 130.762 20.8338 130.762 21.6417C130.762 22.4496 130.511 23.1047 130.009 23.6069C129.529 24.0872 128.885 24.3274 128.077 24.3274Z" fill="#161513"/>
<path fill-rule="evenodd" clip-rule="evenodd" d="M17.1429 0H14.8571V10.1205L11.0659 0.736931L8.94666 1.59318L12.8361 11.2198L5.49442 3.87816L3.87818 5.49442L10.9148 12.5311L1.79586 8.5469L0.880734 10.6414L10.5297 14.8571H0V17.1429H10.5297L0.880738 21.3586L1.79586 23.4531L10.9148 19.469L3.87818 26.5056L5.49442 28.1218L12.8361 20.7802L8.94666 30.4069L11.0659 31.263L14.8571 21.8795V32H17.1429V21.8795L20.9341 31.263L23.0533 30.4069L19.164 20.7802L26.5056 28.1218L28.1218 26.5056L21.0851 19.469L30.2042 23.4531L31.1192 21.3586L21.4704 17.1429H32V14.8571H21.4702L31.1192 10.6414L30.2042 8.5469L21.0851 12.5311L28.1218 5.4944L26.5056 3.87816L19.164 11.2198L23.0533 1.59318L20.9341 0.736931L17.1429 10.1205V0Z" fill="#E94D35"/>
</g>

</symbol><symbol id="Rectangle" viewBox="0 0 40 40">
<path d="M0.5 20C0.5 9.23045 9.23045 0.5 20 0.5C30.7696 0.5 39.5 9.23045 39.5 20C39.5 30.7696 30.7696 39.5 20 39.5C9.23045 39.5 0.5 30.7696 0.5 20Z" stroke="#969186"/>
</symbol><symbol id="Union" viewBox="0 0 1400 77">
<path fill-rule="evenodd" clip-rule="evenodd" d="M1400 0H0V60H601.497L609.613 72.4583C611.458 75.2914 614.611 77 617.992 77H770.008C773.389 77 776.542 75.2914 778.387 72.4583L786.503 60H1400V0Z" fill="black"/>
</symbol><symbol id="Vector-2" viewBox="0 0 16 14">
<path d="M15.6215 2.24316C15.0489 2.49643 14.4417 2.66277 13.82 2.73666C14.4753 2.34474 14.9658 1.72792 15.2 1.00116C14.585 1.36716 13.9108 1.62366 13.208 1.76241C12.736 1.25735 12.1103 0.922383 11.4282 0.809603C10.7462 0.696823 10.046 0.812533 9.43647 1.13875C8.82697 1.46497 8.34227 1.98342 8.05777 2.61351C7.77337 3.24359 7.70507 3.95 7.86347 4.62291C6.61627 4.5604 5.39623 4.2363 4.28244 3.67166C3.16866 3.10702 2.18607 2.31445 1.39848 1.34541C1.1197 1.82425 0.973199 2.36858 0.973979 2.92266C0.973979 4.01016 1.52748 4.97091 2.36898 5.53344C1.87099 5.51774 1.38395 5.38324 0.948479 5.14114V5.18014C0.948629 5.90444 1.19926 6.60634 1.65786 7.16694C2.11647 7.72754 2.75484 8.11224 3.46473 8.25594C3.00244 8.38114 2.51771 8.39964 2.04723 8.30994C2.24738 8.93334 2.63748 9.47854 3.16292 9.86924C3.68836 10.2599 4.32283 10.4765 4.97748 10.4886C4.32684 10.9996 3.58186 11.3774 2.78514 11.6003C1.98842 11.8231 1.15557 11.8868 0.334229 11.7876C1.768 12.7097 3.43705 13.1992 5.14173 13.1976C10.9115 13.1976 14.0668 8.41794 14.0668 4.27266C14.0668 4.13766 14.063 4.00116 14.057 3.86766C14.6712 3.42379 15.2012 2.87393 15.6223 2.24391L15.6215 2.24316Z" fill="#BDB8AD"/>
</symbol><symbol id="Vector-3" viewBox="0 0 16 16">
<path d="M8 5.75098C7.4033 5.75098 6.831 5.98803 6.409 6.41C5.98705 6.8319 5.75 7.4042 5.75 8.001C5.75 8.5977 5.98705 9.17 6.409 9.592C6.831 10.0139 7.4033 10.251 8 10.251C8.5967 10.251 9.169 10.0139 9.591 9.592C10.0129 9.17 10.25 8.5977 10.25 8.001C10.25 7.4042 10.0129 6.8319 9.591 6.41C9.169 5.98803 8.5967 5.75098 8 5.75098ZM8 4.25098C8.9946 4.25098 9.9484 4.64606 10.6517 5.34933C11.3549 6.0526 11.75 7.0064 11.75 8.001C11.75 8.9955 11.3549 9.9494 10.6517 10.6526C9.9484 11.3559 8.9946 11.751 8 11.751C7.0054 11.751 6.0516 11.3559 5.34835 10.6526C4.64509 9.9494 4.25 8.9955 4.25 8.001C4.25 7.0064 4.64509 6.0526 5.34835 5.34933C6.0516 4.64606 7.0054 4.25098 8 4.25098ZM12.875 4.06348C12.875 4.31212 12.7762 4.55057 12.6004 4.72639C12.4246 4.9022 12.1861 5.00098 11.9375 5.00098C11.6889 5.00098 11.4504 4.9022 11.2746 4.72639C11.0988 4.55057 11 4.31212 11 4.06348C11 3.81484 11.0988 3.57638 11.2746 3.40056C11.4504 3.22475 11.6889 3.12598 11.9375 3.12598C12.1861 3.12598 12.4246 3.22475 12.6004 3.40056C12.7762 3.57638 12.875 3.81484 12.875 4.06348ZM8 2.00098C6.1445 2.00098 5.8415 2.00623 4.97825 2.04448C4.39025 2.07223 3.99575 2.15098 3.62975 2.29348C3.30425 2.41948 3.0695 2.57023 2.81975 2.82073C2.58501 3.04753 2.40451 3.32441 2.29175 3.63073C2.14925 3.99823 2.0705 4.39198 2.0435 4.97923C2.0045 5.80723 2 6.0967 2 8.001C2 9.8565 2.00525 10.1595 2.0435 11.0227C2.07125 11.61 2.15 12.0052 2.29175 12.3705C2.41925 12.6967 2.56925 12.9315 2.81825 13.1805C3.071 13.4325 3.30575 13.5832 3.62825 13.7077C3.99875 13.851 4.39325 13.9305 4.97825 13.9575C5.80625 13.9965 6.0957 14.001 8 14.001C9.8555 14.001 10.1585 13.9957 11.0217 13.9575C11.6082 13.9297 12.0035 13.851 12.3695 13.7092C12.6943 13.5825 12.9305 13.4317 13.1795 13.1827C13.4323 12.93 13.583 12.6952 13.7075 12.3727C13.85 12.003 13.9295 11.6077 13.9565 11.0227C13.9955 10.1947 14 9.9052 14 8.001C14 6.1455 13.9947 5.84248 13.9565 4.97923C13.9287 4.39273 13.85 3.99673 13.7075 3.63073C13.5945 3.32473 13.4143 3.04795 13.1802 2.82073C12.9535 2.58586 12.6766 2.40535 12.3702 2.29273C12.0027 2.15023 11.6082 2.07148 11.0217 2.04448C10.1937 2.00548 9.9043 2.00098 8 2.00098ZM8 0.500977C10.0378 0.500977 10.292 0.508477 11.0915 0.545977C11.8902 0.583477 12.434 0.708727 12.9125 0.894727C13.4075 1.08523 13.8245 1.34323 14.2415 1.75948C14.6229 2.1344 14.918 2.58792 15.1063 3.08848C15.2915 3.56623 15.4175 4.11073 15.455 4.90948C15.4903 5.70898 15.5 5.96323 15.5 8.001C15.5 10.0387 15.4925 10.293 15.455 11.0925C15.4175 11.8912 15.2915 12.435 15.1063 12.9135C14.9185 13.4143 14.6233 13.8679 14.2415 14.2425C13.8665 14.6237 13.413 14.9188 12.9125 15.1072C12.4347 15.2925 11.8902 15.4185 11.0915 15.456C10.292 15.4912 10.0378 15.501 8 15.501C5.96225 15.501 5.708 15.4935 4.9085 15.456C4.10975 15.4185 3.566 15.2925 3.0875 15.1072C2.58674 14.9193 2.13315 14.6242 1.7585 14.2425C1.37705 13.8676 1.08195 13.4141 0.89375 12.9135C0.70775 12.4357 0.5825 11.8912 0.545 11.0925C0.50975 10.293 0.5 10.0387 0.5 8.001C0.5 5.96323 0.5075 5.70898 0.545 4.90948C0.5825 4.10998 0.70775 3.56698 0.89375 3.08848C1.08143 2.58761 1.3766 2.13397 1.7585 1.75948C2.13325 1.3779 2.58682 1.08277 3.0875 0.894727C3.566 0.708727 4.109 0.583477 4.9085 0.545977C5.708 0.510727 5.96225 0.500977 8 0.500977Z" fill="#BDB8AD"/>
</symbol><symbol id="Vector-4" viewBox="0 0 32 32">
<path fill-rule="evenodd" clip-rule="evenodd" d="M17.1429 0H14.8571V10.1205L11.0659 0.736931L8.94666 1.59318L12.8361 11.2198L5.49442 3.87816L3.87818 5.49442L10.9148 12.5311L1.79586 8.5469L0.880734 10.6414L10.5297 14.8571H0V17.1429H10.5297L0.880738 21.3586L1.79586 23.4531L10.9148 19.469L3.87818 26.5056L5.49442 28.1218L12.8361 20.7802L8.94666 30.4069L11.0659 31.263L14.8571 21.8795V32H17.1429V21.8795L20.9341 31.263L23.0533 30.4069L19.164 20.7802L26.5056 28.1218L28.1218 26.5056L21.0851 19.469L30.2042 23.4531L31.1192 21.3586L21.4704 17.1429H32V14.8571H21.4702L31.1192 10.6414L30.2042 8.5469L21.0851 12.5311L28.1218 5.4944L26.5056 3.87816L19.164 11.2198L23.0533 1.59318L20.9341 0.736931L17.1429 10.1205V0Z" fill="#E94D35"/>
</symbol><symbol id="Vector" viewBox="0 0 13 12">
<path d="M2.67576 1.3349C2.67558 1.68851 2.53446 2.02755 2.28343 2.27746C2.03241 2.52737 1.69204 2.66767 1.33721 2.6675C0.98238 2.66732 0.64216 2.52668 0.39138 2.27652C0.14061 2.02636 -0.000179828 1.68717 1.72385e-07 1.33357C0.000180172 0.979967 0.1413 0.640917 0.39233 0.391007C0.64336 0.141097 0.98372 0.000796735 1.33855 0.000976735C1.69338 0.00114674 2.0336 0.141787 2.28438 0.391947C2.53515 0.642107 2.67594 0.981297 2.67576 1.3349ZM2.7159 3.65477H0.0401403V12.001H2.7159V3.65477ZM6.9436 3.65477H4.2812V12.001H6.9168V7.6212C6.9168 5.1814 10.1077 4.9547 10.1077 7.6212V12.001H12.75V6.7146C12.75 2.6015 8.0273 2.75482 6.9168 4.7747L6.9436 3.65477Z" fill="#BDB8AD"/>
</symbol><symbol id="Vector5" viewBox="0 0 32 32">
<path fill-rule="evenodd" clip-rule="evenodd" d="M17.1429 0H14.8571V10.1205L11.0659 0.736931L8.94666 1.59318L12.8361 11.2198L5.49442 3.87816L3.87818 5.49442L10.9148 12.5311L1.79586 8.5469L0.880734 10.6414L10.5297 14.8571H0V17.1429H10.5297L0.880738 21.3586L1.79586 23.4531L10.9148 19.469L3.87818 26.5056L5.49442 28.1218L12.8361 20.7802L8.94666 30.4069L11.0659 31.263L14.8571 21.8795V32H17.1429V21.8795L20.9341 31.263L23.0533 30.4069L19.164 20.7802L26.5056 28.1218L28.1218 26.5056L21.0851 19.469L30.2042 23.4531L31.1192 21.3586L21.4704 17.1429H32V14.8571H21.4702L31.1192 10.6414L30.2042 8.5469L21.0851 12.5311L28.1218 5.4944L26.5056 3.87816L19.164 11.2198L23.0533 1.59318L20.9341 0.736931L17.1429 10.1205V0Z" fill="white"/>
</symbol><symbol id="Vectorsmallsun" viewBox="0 0 20 20">
<path d="M10 0L11.3777 6.67403L17.0711 2.92893L13.326 8.62234L20 10L13.326 11.3777L17.0711 17.0711L11.3777 13.326L10 20L8.62234 13.326L2.92893 17.0711L6.67403 11.3777L0 10L6.67403 8.62234L2.92893 2.92893L8.62234 6.67403L10 0Z" fill="#E94D35"/>
</symbol><symbol id="Vectorws" viewBox="0 0 32 32">
<path fill-rule="evenodd" clip-rule="evenodd" d="M17.1429 0H14.8571V10.1205L11.0659 0.736931L8.94666 1.59318L12.8361 11.2198L5.49442 3.87816L3.87818 5.49442L10.9148 12.5311L1.79586 8.5469L0.880734 10.6414L10.5297 14.8571H0V17.1429H10.5297L0.880738 21.3586L1.79586 23.4531L10.9148 19.469L3.87818 26.5056L5.49442 28.1218L12.8361 20.7802L8.94666 30.4069L11.0659 31.263L14.8571 21.8795V32H17.1429V21.8795L20.9341 31.263L23.0533 30.4069L19.164 20.7802L26.5056 28.1218L28.1218 26.5056L21.0851 19.469L30.2042 23.4531L31.1192 21.3586L21.4704 17.1429H32V14.8571H21.4702L31.1192 10.6414L30.2042 8.5469L21.0851 12.5311L28.1218 5.4944L26.5056 3.87816L19.164 11.2198L23.0533 1.59318L20.9341 0.736931L17.1429 10.1205V0Z" fill="white"/>
</symbol><symbol id="icon5" viewBox="0 0 71 71">
<g clip-path="url(#clip0_101_305)">
<path fill-rule="evenodd" clip-rule="evenodd" d="M51.5055 25.4184C51.6622 25.3714 51.8666 25.4655 52.071 25.7343L61.3845 34.692C61.9295 35.2296 61.9295 36.036 61.3845 36.4325L52.071 45.5247C51.8666 45.7935 51.6554 45.8539 51.5055 45.7733C51.3556 45.6927 51.2466 45.4575 51.2466 45.1147V26.0031C51.2466 25.6738 51.3488 25.4655 51.5055 25.4184Z" fill="white"/>
<path fill-rule="evenodd" clip-rule="evenodd" d="M35.5695 10.5H36.2303L36.864 10.7621L46.45 20.1231C46.8656 20.6607 46.7225 21.0639 46.0344 21.0639H42.0624C41.3811 21.0639 40.836 21.6015 40.836 22.2735V29.2219C40.836 29.8939 40.2841 30.4315 39.4598 30.4315H32.4763C31.795 30.4315 31.2363 29.8939 31.2363 29.2219V22.2735C31.2363 21.6015 30.6913 21.0639 29.9964 21.0639H25.7518C25.0705 21.0639 24.9274 20.6607 25.3362 20.1231L34.9427 10.7621L35.5695 10.5Z" fill="white"/>
<path fill-rule="evenodd" clip-rule="evenodd" d="M20.5467 25.2168C20.717 25.2975 20.826 25.5327 20.826 25.8754V45.3903C20.826 45.733 20.717 45.9346 20.5467 45.9951C20.3832 46.0623 20.1447 45.9951 19.8654 45.7935L10.4088 36.4325C9.86374 36.036 9.86374 35.2229 10.4088 34.692L19.8654 25.4722C20.1447 25.2034 20.3832 25.1429 20.5467 25.2235V25.2168Z" fill="white"/>
<path fill-rule="evenodd" clip-rule="evenodd" d="M32.4762 40.5787H39.4596C40.284 40.5787 40.8359 41.1163 40.8359 41.7883V49.14C40.8359 49.9397 41.3809 50.4773 42.0622 50.4773H45.7617C46.4431 50.4773 46.7156 50.8738 46.1773 51.277L36.8638 60.4968C36.5845 60.7656 36.2438 60.9 35.8964 60.9C35.5489 60.9 35.2151 60.7656 34.9425 60.4968L25.629 51.277C25.0772 50.8738 25.3497 50.4773 26.031 50.4773H30.003C30.698 50.4773 31.243 49.9397 31.243 49.14V41.7883C31.243 41.1163 31.7949 40.5787 32.483 40.5787H32.4762Z" fill="white"/>
</g>

</symbol><symbol id="key" viewBox="0 0 24 24">
<path d="M12.6501 9.99999C12.1676 8.62978 11.2042 7.48122 9.93891 6.76763C8.67358 6.05404 7.19226 5.82392 5.77008 6.11999C3.48008 6.57999 1.62008 8.40999 1.14008 10.7C0.94656 11.5771 0.952231 12.4864 1.15667 13.361C1.36112 14.2357 1.75912 15.0533 2.32139 15.7537C2.88366 16.4542 3.59587 17.0196 4.40558 17.4083C5.21529 17.7971 6.10188 17.9993 7.00008 18C8.24002 18 9.44942 17.6153 10.4614 16.8988C11.4734 16.1824 12.2381 15.1695 12.6501 14H17.0001V16C17.0001 17.1 17.9001 18 19.0001 18C20.1001 18 21.0001 17.1 21.0001 16V14C22.1001 14 23.0001 13.1 23.0001 12C23.0001 10.9 22.1001 9.99999 21.0001 9.99999H12.6501ZM7.00008 14C5.90008 14 5.00008 13.1 5.00008 12C5.00008 10.9 5.90008 9.99999 7.00008 9.99999C8.10008 9.99999 9.00008 10.9 9.00008 12C9.00008 13.1 8.10008 14 7.00008 14Z" fill="#A5340F"/>
</symbol><symbol id="logo" viewBox="0 0 130 127">
<g clip-path="url(#clip0_44_4516)">
<path fill-rule="evenodd" clip-rule="evenodd" d="M109.663 101.84C110.431 101.925 110.857 102.526 110.942 103.298L110.944 103.297C110.858 103.984 110.262 104.413 109.664 104.413H109.493C103.578 103.558 99.5904 101.749 96.9343 99.4999H92.9007C94.0378 102.045 95.6751 104.323 97.8059 106.302C98.3179 106.732 98.403 107.591 97.891 108.106C97.6357 108.364 97.2939 108.536 96.9528 108.536C96.6969 108.536 96.3558 108.45 96.0998 108.192C93.4822 105.696 91.5082 102.776 90.2165 99.5006H85.2513L85.2514 99.5125L85.252 99.5308C85.2524 99.5408 85.2528 99.5509 85.2528 99.5609V100.598C85.2528 103.928 82.5612 106.637 79.2525 106.637H53.1985C49.8899 106.637 47.1983 103.928 47.1983 100.598V99.5609C47.1983 99.5509 47.1987 99.5408 47.199 99.5308C47.1994 99.5207 47.1998 99.5107 47.1998 99.5006H41.9505C40.6602 102.496 38.7832 105.18 36.3513 107.499C36.096 107.757 35.7542 107.842 35.4982 107.842C35.1572 107.842 34.8161 107.67 34.5601 107.413C34.0481 106.897 34.1332 106.039 34.6452 105.609C36.5806 103.812 38.1099 101.767 39.2264 99.5006H34.6348C32.0017 101.425 28.2521 102.954 22.9584 103.72H22.7875C22.1904 103.72 21.5934 103.291 21.5083 102.604C21.5934 101.832 22.0195 101.23 22.7875 101.145C25.9386 100.679 28.6087 99.9176 30.7935 98.8602C27.874 97.5704 25.9119 94.8188 25.9119 91.7344V68.5564H26.2633C25.6507 67.0715 25.3592 65.6149 25.2276 64.7741L22.7542 63.4866C22.1564 63.1433 21.9004 62.3703 22.2422 61.7694C22.5833 61.1677 23.3513 60.91 23.9483 61.2541L26.5075 62.628C26.9344 62.456 27.4456 62.2847 28.1285 62.1983C27.9487 62.1381 27.8108 62.0353 27.656 61.9199C27.5904 61.871 27.5218 61.8198 27.4456 61.7686C25.2276 60.137 24.4596 56.7882 24.2036 55.3287L21.7303 54.0411C21.1325 53.6978 20.8765 52.9249 21.2183 52.3239C21.4743 51.5494 22.2415 51.2918 22.8386 51.6351L25.3977 52.9226L25.4043 52.9204L25.4044 52.9204C25.6575 52.8355 25.9127 52.7498 26.3359 52.665C25.9097 52.4929 25.4828 52.2353 25.0566 51.9776C22.6677 50.174 21.9855 46.6539 21.7295 45.28L20.1085 43.5628C19.5965 43.0475 19.5965 42.2752 20.1085 41.7592C20.6205 41.2439 21.3877 41.2439 21.9004 41.7592L23.2647 43.2195C24.6297 42.7906 27.3591 42.2752 29.4921 43.9068C29.6201 44.0357 29.7481 44.1431 29.8761 44.2505C30.0041 44.3579 30.1321 44.4653 30.26 44.5942C30.3451 44.2516 30.431 43.9076 30.6011 43.5643C31.796 41.0741 34.5261 40.3011 35.8903 40.0435L36.4882 38.1542C36.6591 37.4676 37.4263 37.0379 38.1092 37.2956C38.7913 37.4676 39.2182 38.2398 38.9622 38.9272L38.2793 41.4166C38.7062 42.7906 39.6444 46.1394 38.3644 48.7152L38.3579 48.7261C38.1041 49.1514 37.8503 49.5767 37.5965 49.9171C37.6875 49.8988 37.7747 49.8805 37.858 49.863L37.8583 49.8629C38.1647 49.7985 38.4185 49.7451 38.6197 49.7451L40.2407 47.3413C40.6676 46.7396 41.4348 46.6539 42.0326 46.998C42.6304 47.4277 42.7155 48.1999 42.3737 48.8016L40.7527 51.2061C41.1796 52.6657 42.0319 55.8425 40.8378 58.3327C40.778 58.5137 40.6759 58.6524 40.5611 58.8083C40.5126 58.8743 40.4617 58.9434 40.4109 59.02C40.9483 58.8172 41.4854 58.721 41.8978 58.6471L41.898 58.6471C42.0095 58.6271 42.1119 58.6087 42.2028 58.5903L43.9089 56.1865C44.3358 55.5848 45.103 55.4992 45.7008 55.8432C46.2986 56.2729 46.3837 57.0451 46.0419 57.6468L44.3358 60.0514C44.5385 60.7 44.8226 61.7009 45.0002 62.8544H49.7841C49.7937 61.511 49.7982 60.1341 49.7982 58.7222V58.3528C49.7982 54.5143 48.2691 51.197 46.4988 47.3563L46.4988 47.3563L46.4987 47.3562L46.4984 47.3554C43.1158 40.0181 38.9067 30.8862 43.6322 13.6402C43.6514 13.568 43.6773 13.4987 43.7069 13.4317V13.1398C43.7069 12.9536 43.7432 12.769 43.8142 12.5969L44.7161 10.4106C45.9916 7.31793 48.1283 4.70114 50.8954 2.84168C53.6624 0.982972 56.883 0 60.2101 0H72.0589C75.4475 0 78.7176 1.01648 81.518 2.937C84.3161 4.85975 86.4484 7.55474 87.6832 10.7308L88.6953 13.3342C88.7456 13.4295 88.7878 13.5308 88.8174 13.6387C93.5426 30.883 89.3335 40.0149 85.9518 47.352L85.9512 47.3532C84.18 51.195 82.6507 54.5125 82.6507 58.3513L82.6492 58.7192C82.6485 60.1311 82.6537 61.5087 82.6633 62.8529H87.5707C87.7402 61.9943 87.9525 61.2585 88.1138 60.744L86.4077 58.3394C86.0659 57.7377 86.1509 56.9655 86.7487 56.5358C87.3466 56.1917 88.1138 56.2781 88.5407 56.8791L90.2468 59.2836C90.3376 59.302 90.44 59.3204 90.5515 59.3404L90.5516 59.3404L90.5517 59.3404L90.5518 59.3404C90.9643 59.4143 91.5013 59.5105 92.0387 59.7133C91.9879 59.6367 91.9371 59.5677 91.8886 59.5018L91.8884 59.5016C91.7737 59.3457 91.6716 59.207 91.6118 59.026C90.4177 56.5358 91.27 53.359 91.6969 51.8994L90.0759 49.4956C89.7341 48.8939 89.8191 48.1217 90.417 47.692C91.0148 47.348 91.782 47.4336 92.2089 48.0353L93.8299 50.4399C94.0302 50.4399 94.2832 50.493 94.5892 50.5573C94.6732 50.575 94.7612 50.5934 94.8531 50.6119C94.5971 50.2686 94.3411 49.8397 94.0852 49.41C92.8052 46.8342 93.7433 43.4853 94.1702 42.1114L93.4874 39.622C93.2314 38.9346 93.6575 38.1624 94.3404 37.9904C95.0233 37.7327 95.7905 38.1617 95.9614 38.849L96.5592 40.7382C97.9243 40.9959 100.654 41.7696 101.848 44.2591C102.019 44.6016 102.104 44.9457 102.19 45.2889C102.318 45.1601 102.446 45.0527 102.574 44.9453C102.702 44.8379 102.83 44.7304 102.958 44.6016C105.091 42.97 107.82 43.4846 109.185 43.9143L110.549 42.454C111.062 41.9387 111.829 41.9387 112.341 42.454C112.853 42.97 112.853 43.7423 112.341 44.2576L110.72 45.9748C110.464 47.3487 109.781 50.8688 107.393 52.6724C106.967 52.9301 106.541 53.1877 106.114 53.3597C106.534 53.4443 106.789 53.5296 107.042 53.6141L107.052 53.6174L109.611 52.3299C110.208 51.9866 110.975 52.2442 111.231 53.0187C111.572 53.6196 111.316 54.3926 110.719 54.7359L108.246 56.0235C107.99 57.483 107.222 60.8318 105.004 62.4634C104.928 62.5146 104.859 62.5658 104.794 62.6147C104.639 62.7301 104.501 62.8329 104.321 62.8931C105.004 62.9795 105.515 63.1507 105.942 63.3228L108.501 61.9488C109.098 61.6055 109.866 61.8625 110.207 62.4642C110.548 63.0651 110.293 63.8381 109.695 64.1814L107.222 65.4689C107.111 66.1778 106.887 67.3247 106.452 68.5571H106.538V91.7351C106.538 95.0177 104.317 97.9226 101.083 99.091C102.761 100.075 104.654 100.553 107.025 101.151C107.844 101.357 108.719 101.578 109.663 101.84ZM108.075 46.3196C107.051 46.0619 105.516 45.8907 104.407 46.7493C103.212 47.6071 102.53 49.6684 102.189 51.0423C103.213 51.3 104.748 51.4712 105.857 50.6126C107.137 49.754 107.819 47.6935 108.075 46.3196ZM105.772 55.9356C104.748 55.6779 103.213 55.5066 102.104 56.3653C100.824 57.2239 100.142 59.2844 99.8856 60.6583C100.91 60.916 102.445 61.0872 103.554 60.2286C104.749 59.3708 105.431 57.3095 105.772 55.9356ZM100.312 53.0165H100.227V53.0172H100.142C100.142 53.0172 99.4595 53.0172 98.6064 52.7595C98.8624 53.1028 99.1184 53.5318 99.3744 53.9614C99.5446 54.304 99.6304 54.648 99.7155 54.9913C99.9707 54.7344 100.227 54.4768 100.568 54.2191L100.568 54.219C100.994 53.9614 101.42 53.7038 101.847 53.5318C101.365 53.3861 100.965 53.2405 100.692 53.1414L100.692 53.1413L100.692 53.1412C100.483 53.0651 100.349 53.0165 100.312 53.0165ZM99.5435 63.234C98.8739 63.1111 98.3779 62.901 98.118 62.7909L98.118 62.7909C98.014 62.7468 97.9478 62.7188 97.9235 62.7188H97.7534C97.7534 62.6795 97.6095 62.6583 97.3631 62.6218C97.0727 62.5789 96.6399 62.5149 96.1323 62.3755C96.3883 62.7181 96.6443 63.0621 96.8152 63.4054C97.0712 63.9207 97.2421 64.5217 97.3272 65.037C97.6683 64.6081 98.0944 64.1784 98.5213 63.8351C98.8602 63.5785 99.2006 63.4069 99.5402 63.2356L99.5435 63.234ZM99.4595 45.4595C98.8617 44.1719 97.4115 43.6574 96.4734 43.399C96.0473 44.6865 95.7055 46.8334 96.3883 48.2073C96.9861 49.4949 98.4363 50.0102 99.3744 50.2679C99.8005 48.9803 100.142 46.8334 99.4595 45.4595ZM97.0712 55.0762C96.4734 53.7887 95.0233 53.2734 94.0852 53.0157C93.6583 54.3896 93.3172 56.5365 94.0001 57.8241C94.5971 59.1116 96.048 59.6269 96.9861 59.8846C97.4123 58.597 97.7541 56.4501 97.0712 55.0762ZM94.512 64.521C93.7441 62.8894 91.782 62.2028 90.5879 61.9451C90.0759 63.5767 89.5639 66.2382 90.417 68.0418C91.1842 69.6734 93.1463 70.36 94.3411 70.6176C94.8531 68.986 95.3651 66.2382 94.512 64.521ZM87.2866 65.8331H82.6951C82.7232 67.9494 82.7654 69.972 82.8209 71.8992H90.4917C89.5151 71.2789 88.6043 70.4009 88.0287 69.1595C87.5131 68.1224 87.3111 66.9662 87.2866 65.8331ZM52.4565 5.1956C50.1525 6.74304 48.3739 8.92196 47.3122 11.4963V11.4956L46.8484 12.62H50.8473C51.2497 12.62 51.6337 12.7935 51.9001 13.0974C52.1664 13.4012 52.2915 13.8048 52.2426 14.2069C52.2315 14.3015 52.2256 14.3879 52.2256 14.4713V21.428C52.2256 22.6076 53.1786 23.5668 54.3505 23.5668C55.5224 23.5668 56.4753 22.6076 56.4753 21.428V14.4713C56.4753 14.3879 56.4694 14.3015 56.4583 14.2077C56.4095 13.8055 56.5338 13.4019 56.8009 13.0981C57.068 12.7943 57.4512 12.6208 57.8537 12.6208H59.0034C59.1455 12.5753 59.2964 12.55 59.4533 12.55H85.3697L85.0641 11.7636C84.0364 9.12004 82.2615 6.87634 79.9317 5.27603C77.6019 3.67572 74.8792 2.82977 72.0589 2.82977H60.2101C57.4409 2.82977 54.7596 3.64817 52.4565 5.1956ZM46.2069 15.4513C45.2214 19.2663 44.6643 22.7573 44.5097 26.0905H44.5082L44.4963 26.3489L44.6917 26.5164C46.6123 28.1666 49.3742 28.9686 53.1371 28.9686C58.1006 28.9686 63.8992 27.5952 69.507 26.2669L69.5101 26.2662C74.7143 25.033 79.6291 23.8691 83.5311 23.8691C84.9035 23.8691 86.0718 24.0083 87.1024 24.295L87.8415 24.5006L87.7638 23.7328C87.5152 21.2724 87.0432 18.6444 86.3611 15.9212L86.2612 15.522H59.4533C59.397 15.522 59.3415 15.5176 59.2868 15.5116V21.4288C59.2868 24.1685 57.0724 26.3973 54.3505 26.3973C51.6286 26.3973 49.4142 24.1685 49.4142 21.4288V15.4513H46.2069ZM44.5903 30.9592C45.1171 37.2986 47.2738 41.9774 49.1767 46.1051V46.1059L49.1773 46.1073C51.0149 50.0937 52.7509 53.86 52.7509 58.3535V58.7222C52.7524 63.6236 52.7176 68.0455 52.6496 71.9014H79.8511C79.7519 68.1095 79.6964 63.7457 79.6979 58.7236V58.3543C79.6979 53.8615 81.4339 50.0953 83.2715 46.1088L83.2722 46.1073L82.3111 45.6859L83.2722 46.1066C85.4496 41.3831 87.9162 36.0304 87.9814 28.2575L87.9836 27.9775L87.755 27.8189C86.8294 27.1747 85.397 26.8485 83.4978 26.8485C82.9215 26.8485 82.2911 26.8783 81.6245 26.9372C78.3388 27.2268 74.3831 28.164 70.1943 29.1564L70.1915 29.157L70.1819 29.1593L70.1758 29.1607C65.0461 30.3756 59.7421 31.6317 54.9017 31.8952C54.3009 31.9272 53.7157 31.9436 53.1608 31.9436C50.0245 31.9436 47.4654 31.4514 45.3368 30.4379L44.5141 30.0462L44.5903 30.9592ZM71.035 92.0017H74.8445L69.1106 78.9699H65.5038L59.7884 92.0017H63.5247L64.542 89.4512H70.0177L71.035 92.0017ZM42.0319 67.35C42.8849 65.5464 42.373 62.8849 41.861 61.2533C40.6669 61.511 38.7048 62.1976 37.9368 63.8291C37.0837 65.5464 37.5957 68.2942 38.1077 69.9258C39.3026 69.6682 41.2639 68.9816 42.0319 67.35ZM38.4488 57.1323C39.1317 55.8447 38.7906 53.6978 38.3637 52.3239C37.4255 52.5808 35.9754 53.0961 35.3776 54.3844C34.6947 55.7583 35.0366 57.9053 35.4627 59.1928C36.4008 58.9359 37.851 58.4206 38.4488 57.1323ZM35.6329 62.7129C35.8038 62.3703 36.0598 62.0263 36.3158 61.683V61.6822C35.8082 61.8216 35.3754 61.8856 35.085 61.9286L35.0849 61.9286C34.8386 61.965 34.6947 61.9862 34.6947 62.0255H34.5246C34.5003 62.0255 34.4341 62.0536 34.3301 62.0976C34.0702 62.2077 33.5737 62.418 32.9036 62.5409L32.9124 62.5453C33.2498 62.7159 33.5887 62.8871 33.9268 63.1426C34.3529 63.4858 34.7798 63.9148 35.1209 64.3445C35.206 63.8291 35.3769 63.2282 35.6329 62.7129ZM35.9747 42.7072C35.0366 42.9648 33.5864 43.4801 32.9886 44.7677C32.3057 46.1416 32.6476 48.2885 33.0737 49.576C34.0119 49.3191 35.462 48.8038 36.0598 47.5155C36.7427 46.1416 36.4008 43.9947 35.9747 42.7072ZM32.3065 52.3239H32.1363V52.3224C32.0994 52.3224 31.9662 52.3709 31.7574 52.4468C31.485 52.546 31.0841 52.6918 30.6011 52.8377C31.0273 53.0097 31.4542 53.2674 31.8803 53.5251C32.2207 53.7827 32.4767 54.0404 32.7326 54.298C32.8177 53.9555 32.9036 53.6115 33.0737 53.2682L33.0802 53.2572C33.3341 52.8319 33.5879 52.4066 33.8417 52.0662C32.9886 52.3239 32.3065 52.3239 32.3065 52.3239ZM28.0412 46.056C26.9314 45.1966 25.3962 45.3686 24.373 45.6263C24.629 47.0002 25.3119 49.0607 26.5911 49.9193C27.7009 50.7787 29.2361 50.6067 30.2593 50.349C29.9182 48.9751 29.2353 46.9146 28.0412 46.056ZM30.3444 55.672C29.2346 54.8126 27.6994 54.9846 26.6762 55.2423C27.0173 56.6162 27.7001 58.6767 28.8943 59.5353C30.0041 60.3947 31.5393 60.2227 32.5625 59.965C32.3065 58.5911 31.6236 56.5306 30.3444 55.672ZM27.6994 64.7734C28.0412 66.405 28.8943 69.0665 30.4295 70.1827C31.8796 71.299 33.9275 70.9557 35.1216 70.6124C34.7806 68.9808 34.0126 66.3193 32.3916 65.2031C30.9415 64.0861 28.8935 64.4301 27.6994 64.7734ZM37.8983 88.1942C37.5839 87.865 37.3368 87.4711 37.1585 87.0116C36.9802 86.5529 36.8906 86.0436 36.8906 85.4851C36.8906 84.9266 36.9794 84.4179 37.1585 83.9585C37.3368 83.499 37.5839 83.1051 37.8983 82.7759C38.2135 82.4475 38.5923 82.1966 39.0362 82.0223C39.4801 81.8488 39.9669 81.7617 40.4974 81.7617C41.1012 81.7617 41.656 81.892 42.1621 82.1526C42.6674 82.4133 43.1298 82.7923 43.5493 83.2883L45.8799 81.1659C45.251 80.3595 44.4645 79.7488 43.5212 79.3326C42.5772 78.9163 41.5073 78.7085 40.3117 78.7085C39.2878 78.7085 38.3444 78.8731 37.4818 79.2015C36.6184 79.5306 35.8659 79.9961 35.2252 80.5978C34.5838 81.2002 34.0844 81.9173 33.727 82.7484C33.3689 83.5802 33.1906 84.4917 33.1906 85.4851C33.1906 86.4785 33.3689 87.3907 33.727 88.2217C34.0844 89.0535 34.5838 89.7707 35.2252 90.3724C35.8659 90.9748 36.6184 91.4402 37.4818 91.7686C38.3444 92.097 39.2878 92.2616 40.3117 92.2616C41.5081 92.2616 42.5772 92.0501 43.5212 91.6286C44.4653 91.2071 45.251 90.5928 45.8799 89.7856L43.5493 87.6632C43.1298 88.1726 42.6674 88.5568 42.1621 88.8175C41.656 89.0781 41.1012 89.2084 40.4974 89.2084C39.9669 89.2084 39.4801 89.1221 39.0362 88.9478C38.5923 88.7743 38.2128 88.5233 37.8983 88.1942ZM44.4194 68.467C43.5826 70.2706 42.0393 71.3072 40.6143 71.8999H49.6265C49.682 69.9735 49.7234 67.9502 49.7523 65.8338H45.1237C45.0416 66.7393 44.83 67.6411 44.4194 68.467ZM53.4996 78.9691H47.5993V92.001V92.0017H51.2616V88.539H53.2422L55.5897 92.0017H59.511L56.7173 87.9038C57.5089 87.5292 58.123 87.0087 58.5588 86.3422C59.0219 85.6347 59.2528 84.7538 59.2528 83.773C59.2528 82.7923 59.0219 81.9397 58.5588 81.2129C58.0956 80.4861 57.4327 79.9313 56.57 79.5463C55.7066 79.162 54.6834 78.9691 53.4996 78.9691ZM79.2503 103.808C81.009 103.808 82.4391 102.368 82.4391 100.598H82.4384V99.5617C82.4384 99.5516 82.438 99.5416 82.4376 99.5315C82.4374 99.526 82.4372 99.5205 82.4371 99.515C82.437 99.5105 82.4369 99.5059 82.4369 99.5014H50.009C50.009 99.5118 50.0086 99.5222 50.0082 99.5327C50.0079 99.5424 50.0075 99.552 50.0075 99.5617V100.598C50.0075 102.368 51.4384 103.808 53.1963 103.808H79.2503ZM79.635 81.8362H86.1088V78.9691H75.9728V92.001H79.635V87.5329H85.3319V84.6845H79.635V81.8362ZM94.4137 81.892H98.3719V78.9691H86.7746V81.892H90.7514V92.001H94.4137V81.892ZM100.057 65.8971C98.4355 67.0134 97.6675 69.6749 97.3265 71.3064C98.5206 71.6497 100.569 71.993 102.019 70.8768C103.554 69.7605 104.407 67.099 104.749 65.4674C103.555 65.1241 101.507 64.7808 100.057 65.8971ZM28.9794 43.4794C28.8085 43.3937 24.8843 41.4188 23.9462 37.7267L23.9476 37.7275C23.2648 34.8933 24.5447 32.0598 25.2269 30.8579C25.2269 30.8151 25.2057 30.7937 25.1845 30.7723C25.1631 30.7507 25.1418 30.7291 25.1418 30.6858L24.544 28.3677C24.3731 27.6811 24.7992 26.9937 25.4821 26.8225C26.1643 26.6504 26.8471 27.0794 27.0173 27.7667L27.6151 30.0849C28.6383 30.6858 31.4535 32.5743 32.2215 35.6655C33.1596 39.3568 30.6004 43.0497 30.5153 43.1353C30.3452 43.393 30.0041 43.6514 29.5772 43.6514C29.4063 43.6514 29.1503 43.5657 28.9794 43.4794ZM29.8325 36.1808C29.4063 34.6356 28.1264 33.4329 27.1882 32.7463C26.6762 33.7762 26.0792 35.4942 26.5053 37.0394C26.9315 38.5846 28.2114 39.7873 29.1496 40.4739C29.6616 39.444 30.2594 37.7267 29.8325 36.1808ZM102.871 44.3455C103.042 44.3454 103.298 44.2598 103.469 44.1734C103.64 44.0878 107.563 42.1129 108.502 38.4208C109.185 35.5873 107.904 32.7538 107.223 31.5519C107.223 31.5092 107.244 31.4878 107.265 31.4663C107.287 31.4448 107.308 31.4232 107.308 31.3799L107.905 29.0617C108.076 28.3744 107.649 27.6878 106.967 27.5165C106.284 27.3445 105.602 27.7742 105.432 28.4608L104.834 30.779C103.811 31.3807 100.995 33.2684 100.228 36.3596C99.2894 40.0517 101.849 43.7438 101.934 43.8294C102.104 44.087 102.445 44.3453 102.871 44.3455ZM102.615 36.8749C103.042 35.3297 104.321 34.127 105.259 33.4404C105.771 34.4703 106.368 36.1883 105.942 37.7335C105.515 39.2787 104.236 40.4813 103.298 41.1679C102.786 40.138 102.189 38.4208 102.615 36.8749ZM94.7119 34.299H94.541C93.7737 34.2134 93.3468 33.5268 93.5177 32.8402L93.8588 30.4364C93.9439 29.6634 94.626 29.2345 95.3089 29.3201C95.9911 29.4914 96.418 30.0924 96.3322 30.7789L95.9911 33.1828C95.906 33.8694 95.3097 34.299 94.7119 34.299ZM72.5362 40.004C73.0622 40.004 73.5786 39.7895 73.9508 39.4142C74.3237 39.0396 74.5368 38.5206 74.5368 37.9904C74.5368 37.4609 74.3237 36.9411 73.9508 36.5666C73.5786 36.1912 73.063 35.9768 72.5362 35.9768C72.0094 35.9768 71.4937 36.1912 71.1216 36.5666C70.7494 36.9411 70.5356 37.4602 70.5356 37.9904C70.5356 38.5206 70.7502 39.0396 71.1216 39.4142C71.4937 39.7895 72.0094 40.004 72.5362 40.004ZM61.209 48.2587C60.8369 48.6333 60.3204 48.8485 59.7944 48.8485C59.2676 48.8485 58.752 48.6333 58.3798 48.2587C58.0069 47.8842 57.7938 47.3651 57.7938 46.8349C57.7938 46.3047 58.0069 45.7857 58.3798 45.4111C58.752 45.0358 59.2676 44.8213 59.7944 44.8213C60.3212 44.8213 60.8376 45.035 61.209 45.4111C61.5812 45.7857 61.795 46.3047 61.795 46.8349C61.795 47.3651 61.5812 47.8842 61.209 48.2587ZM60.3796 58.4623C60.0075 58.8376 59.7944 59.3559 59.7944 59.8868C59.7944 60.4178 60.0075 60.9361 60.3796 61.3106C60.7525 61.6852 61.2674 61.9004 61.795 61.9004C62.3225 61.9004 62.8374 61.6852 63.2096 61.3106C63.5817 60.9361 63.7955 60.417 63.7955 59.8868C63.7955 59.3566 63.5817 58.8376 63.2096 58.4623C62.8382 58.0884 62.3217 57.8732 61.795 57.8732C61.2682 57.8732 60.7525 58.0877 60.3796 58.4623ZM13.1109 83.5891C13.438 83.464 13.7228 83.2875 13.9647 83.0604C14.2067 82.8333 14.3946 82.5652 14.5278 82.2569C14.6617 81.9486 14.7283 81.609 14.7283 81.2382C14.7283 80.8673 14.6602 80.5352 14.5241 80.2291C14.3879 79.9231 14.2 79.6565 13.961 79.4294C13.7213 79.2022 13.438 79.0257 13.1109 78.9006C12.7839 78.7755 12.4266 78.713 12.0396 78.713C11.6527 78.713 11.2953 78.7755 10.9683 78.9006C10.6413 79.0257 10.3579 79.203 10.1182 79.4331C9.87851 79.6624 9.69059 79.9305 9.55519 80.2366C9.41906 80.5426 9.351 80.8763 9.351 81.2382C9.351 81.6001 9.41906 81.9419 9.55519 82.2502C9.69133 82.5585 9.87925 82.8273 10.1182 83.0574C10.3579 83.2868 10.642 83.4648 10.972 83.5899C11.3013 83.715 11.6571 83.7775 12.0396 83.7775C12.4221 83.7775 12.7839 83.715 13.1109 83.5899V83.5891ZM11.1067 82.2569C10.9868 82.134 10.8943 81.9881 10.83 81.819C10.7656 81.65 10.733 81.4586 10.733 81.2449C10.733 81.0312 10.7649 80.8405 10.83 80.6707C10.8943 80.5017 10.9868 80.3557 11.1067 80.2321C11.2265 80.1093 11.3656 80.0154 11.5247 79.9506C11.6838 79.8858 11.8554 79.8531 12.0396 79.8531C12.2239 79.8531 12.3955 79.8858 12.5546 79.9506C12.7136 80.0154 12.852 80.1093 12.9689 80.2321C13.0865 80.355 13.1783 80.501 13.2456 80.6707C13.3122 80.8398 13.3455 81.0312 13.3455 81.2449C13.3455 81.4586 13.3122 81.6492 13.2456 81.819C13.179 81.9881 13.0865 82.134 12.9689 82.2569C12.8513 82.3798 12.7129 82.4736 12.5546 82.5384C12.3962 82.6032 12.2239 82.6359 12.0396 82.6359C11.8554 82.6359 11.6838 82.6032 11.5247 82.5384C11.3656 82.4736 11.2265 82.3798 11.1067 82.2569ZM0 83.6792H1.36873V82.0097H3.4973V80.9455H1.36873V79.8814H3.78732V78.8098H0V83.6792ZM20.7973 119.991C20.3593 119.712 19.8814 119.488 19.3635 119.321C18.8456 119.153 18.3247 119.014 17.8009 118.902C17.2763 118.791 16.7991 118.682 16.3671 118.576C15.935 118.471 15.5836 118.334 15.3128 118.167C15.0412 117.999 14.9058 117.766 14.9058 117.468C14.9058 117.27 14.9732 117.084 15.1093 116.91C15.2447 116.736 15.4667 116.593 15.7752 116.481C16.083 116.37 16.4899 116.314 16.9959 116.314C17.5627 116.314 18.1486 116.395 18.7531 116.556C19.3568 116.718 19.9672 116.972 20.5842 117.319L21.694 114.601C21.0651 114.217 20.3408 113.928 19.5203 113.736C18.6998 113.544 17.8645 113.447 17.0137 113.447C15.7434 113.447 14.6832 113.64 13.8323 114.024C12.9815 114.409 12.3459 114.918 11.9272 115.551C11.5077 116.184 11.2983 116.885 11.2983 117.654C11.2983 118.35 11.4307 118.927 11.6964 119.386C11.9612 119.845 12.3097 120.217 12.741 120.503C13.1724 120.789 13.6533 121.018 14.1837 121.192C14.7135 121.366 15.2351 121.505 15.7463 121.61C16.2576 121.716 16.7325 121.827 17.1705 121.945C17.6078 122.064 17.9629 122.206 18.2345 122.373C18.5052 122.541 18.6414 122.767 18.6414 123.052C18.6414 123.276 18.5704 123.469 18.4283 123.63C18.2862 123.791 18.0643 123.916 17.7624 124.002C17.4598 124.089 17.0507 124.132 16.5328 124.132C15.7804 124.132 15.025 124.012 14.2674 123.769C13.5097 123.526 12.8402 123.219 12.2609 122.847L11.0586 125.584C11.6623 125.993 12.4554 126.331 13.435 126.598C14.4146 126.864 15.4415 126.999 16.5143 126.999C17.7965 126.999 18.8633 126.806 19.7142 126.421C20.565 126.037 21.2028 125.525 21.6289 124.886C22.0543 124.247 22.2667 123.548 22.2667 122.792C22.2667 122.11 22.1305 121.542 21.8597 121.088C21.5882 120.635 21.2338 120.269 20.7958 119.99L20.7973 119.991ZM27.1504 116.63H31.1272V126.739H34.7894V116.63H38.7477V113.708H27.1504V116.63ZM53.9517 113.95C54.8269 114.285 55.5853 114.757 56.2268 115.364C56.8682 115.973 57.3706 116.686 57.7346 117.505C58.0986 118.325 58.2806 119.212 58.2806 120.205C58.2806 121.197 58.1015 122.107 57.7442 122.932C57.3861 123.758 56.8837 124.475 56.2364 125.082C55.5883 125.691 54.8269 126.162 53.9517 126.497C53.0757 126.832 52.108 127 51.0848 127C50.0615 127 49.1086 126.832 48.2274 126.497C47.3455 126.162 46.5835 125.688 45.9428 125.074C45.3013 124.459 44.7982 123.74 44.4349 122.914C44.0709 122.088 43.8889 121.173 43.8889 120.205C43.8889 119.237 44.0709 118.343 44.4349 117.524C44.799 116.705 45.3013 115.988 45.9428 115.373C46.5835 114.76 47.3418 114.285 48.2178 113.95C49.0931 113.614 50.049 113.447 51.0848 113.447C52.1206 113.447 53.0757 113.614 53.9517 113.95ZM53.5722 122.933C53.8866 122.604 54.133 122.213 54.312 121.76C54.4903 121.307 54.5798 120.795 54.5798 120.224C54.5798 119.654 54.4903 119.142 54.312 118.689C54.133 118.236 53.8866 117.845 53.5722 117.516C53.2577 117.187 52.8878 116.936 52.4624 116.762C52.0377 116.589 51.5775 116.502 51.0848 116.502C50.592 116.502 50.1326 116.589 49.7071 116.762C49.2825 116.936 48.9088 117.187 48.5885 117.516C48.2674 117.845 48.021 118.236 47.8486 118.689C47.6755 119.141 47.5897 119.654 47.5897 120.224C47.5897 120.795 47.6755 121.307 47.8486 121.76C48.021 122.213 48.2674 122.604 48.5885 122.933C48.9088 123.261 49.2817 123.513 49.7071 123.686C50.1318 123.86 50.592 123.947 51.0848 123.947C51.5775 123.947 52.037 123.86 52.4624 123.686C52.8878 123.513 53.2577 123.262 53.5722 122.933ZM75.8056 121.08C76.268 120.372 76.4996 119.516 76.4996 118.511C76.4996 117.505 76.2687 116.677 75.8056 115.951C75.3424 115.224 74.6803 114.669 73.8169 114.284C72.9534 113.9 71.9302 113.707 70.7465 113.707H64.8461V126.739H68.5084V123.276H70.489L72.8365 126.739H76.7578L73.9641 122.641C74.7557 122.266 75.3698 121.746 75.8056 121.079V121.08ZM72.2454 117.124C72.6272 117.466 72.8188 117.928 72.8188 118.511C72.8188 119.094 72.6272 119.59 72.2454 119.926C71.8629 120.261 71.2895 120.428 70.5252 120.428H68.5091V116.612H70.5252C71.2895 116.612 71.8629 116.782 72.2454 117.124ZM83.1575 113.708H86.8198V126.739H83.1575V113.708ZM97.658 121.489H103.41V118.753H97.658V116.575H104.187V113.708H94.0512V126.739H104.428V123.872H97.658V121.489ZM118.485 119.321C119.003 119.488 119.481 119.712 119.919 119.991L119.917 119.99C120.355 120.269 120.71 120.635 120.981 121.088C121.252 121.542 121.388 122.11 121.388 122.792C121.388 123.548 121.176 124.247 120.75 124.886C120.324 125.525 119.686 126.037 118.836 126.421C117.985 126.806 116.918 126.999 115.636 126.999C114.563 126.999 113.536 126.864 112.556 126.598C111.577 126.331 110.784 125.993 110.18 125.584L111.382 122.847C111.962 123.219 112.631 123.526 113.389 123.769C114.146 124.012 114.902 124.132 115.654 124.132C116.172 124.132 116.581 124.089 116.884 124.002C117.186 123.916 117.408 123.791 117.55 123.63C117.692 123.469 117.763 123.276 117.763 123.052C117.763 122.767 117.627 122.541 117.356 122.373C117.084 122.206 116.729 122.064 116.292 121.945C115.854 121.827 115.379 121.716 114.868 121.61C114.357 121.505 113.835 121.366 113.305 121.192C112.775 121.018 112.294 120.789 111.863 120.503C111.431 120.217 111.083 119.845 110.818 119.386C110.552 118.927 110.42 118.35 110.42 117.654C110.42 116.885 110.629 116.184 111.049 115.551C111.467 114.918 112.103 114.409 112.954 114.024C113.805 113.64 114.865 113.447 116.135 113.447C116.986 113.447 117.821 113.544 118.642 113.736C119.462 113.928 120.187 114.217 120.815 114.601L119.706 117.319C119.089 116.972 118.478 116.718 117.875 116.556C117.27 116.395 116.684 116.314 116.117 116.314C115.611 116.314 115.204 116.37 114.897 116.481C114.588 116.593 114.366 116.736 114.231 116.91C114.095 117.084 114.027 117.27 114.027 117.468C114.027 117.766 114.163 117.999 114.434 118.167C114.705 118.334 115.056 118.471 115.489 118.576C115.921 118.682 116.398 118.791 116.922 118.902C117.446 119.014 117.967 119.153 118.485 119.321ZM8.81829 80.6045C8.81829 80.9798 8.73247 81.3 8.55934 81.5644C8.39657 81.8138 8.16648 82.0074 7.87053 82.1474L8.91521 83.6792H7.4503L6.57283 82.385H5.83297V83.6792H4.46424V78.8098H6.66901C7.11144 78.8098 7.49395 78.882 7.81652 79.0257C8.1391 79.1695 8.38621 79.3772 8.55934 79.6483C8.73173 79.9194 8.81829 80.2291 8.81829 80.6045ZM7.44364 80.6045C7.44364 80.3863 7.37187 80.2135 7.22908 80.0862C7.08629 79.9588 6.87173 79.8948 6.58614 79.8948H5.83297V81.3208H6.58614C6.87173 81.3208 7.08629 81.2583 7.22908 81.1332C7.37187 81.0081 7.44364 80.8227 7.44364 80.6045ZM17.9763 83.1997L16.7392 81.1682V83.6792H15.4815V78.8098H16.6083L18.3048 81.6232L19.9672 78.8098H21.0933L21.1007 83.6792H19.8422L19.8304 81.0959L18.5844 83.1997H17.9763ZM11.2451 87.1576V89.8638C11.2451 90.5824 11.4441 91.1394 11.8429 91.5333C12.2417 91.9273 12.798 92.1246 13.512 92.1246C14.2259 92.1246 14.7779 91.9273 15.1811 91.5333C15.5843 91.1394 15.7856 90.5824 15.7856 89.8638V87.1576H14.4309V89.8221C14.4309 90.2346 14.3517 90.5318 14.1927 90.7127C14.0336 90.8937 13.8116 90.9838 13.5253 90.9838C13.239 90.9838 13.0163 90.8937 12.855 90.7127C12.6937 90.5318 12.6131 90.2354 12.6131 89.8221V87.1576H11.2451ZM19.877 91.0739H17.8313H17.8305L17.4502 92.0271H16.0541L18.1901 87.1576H19.5381L21.6807 92.0271H20.2573L19.877 91.0739ZM18.8545 88.5085L18.2338 90.0656H19.4752L18.8545 88.5085ZM116.316 83.6792L117.884 78.8098H116.578L115.565 81.9471L114.588 78.8098H113.33L112.306 81.9181L111.333 78.8098H109.923L111.492 83.6792H112.963L113.921 80.7065L114.851 83.6792H116.316ZM118.409 78.8098H119.778V83.6792H118.409V78.8098ZM123.172 83.6792V79.9022H124.651V78.8098H120.318V79.9022H121.803V83.6792H123.172ZM128.424 81.7803H126.565V83.6792H125.197V78.8098H126.565V80.6395H128.424V78.8098H129.793V83.6792H128.424V81.7803ZM111.028 87.1576V92.0271H114.698V90.9354H112.397V87.1576H111.028ZM116.561 91.9369C116.231 91.8118 115.947 91.6338 115.708 91.4045V91.4052C115.469 91.1751 115.281 90.9063 115.144 90.598C115.008 90.2897 114.94 89.9479 114.94 89.586C114.94 89.2241 115.008 88.8904 115.144 88.5844C115.28 88.2783 115.468 88.0102 115.708 87.7809C115.947 87.5508 116.231 87.3736 116.558 87.2484C116.885 87.1233 117.242 87.0608 117.629 87.0608C118.016 87.0608 118.373 87.1233 118.7 87.2484C119.027 87.3736 119.311 87.55 119.55 87.7772C119.789 88.0043 119.977 88.2709 120.113 88.5769C120.249 88.883 120.318 89.2151 120.318 89.586C120.318 89.9568 120.251 90.2964 120.117 90.6047C119.984 90.913 119.796 91.1811 119.554 91.4082C119.312 91.6353 119.027 91.8118 118.7 91.9369C118.373 92.062 118.011 92.1246 117.629 92.1246C117.246 92.1246 116.891 92.062 116.561 91.9369ZM116.696 88.5807C116.576 88.7035 116.484 88.8495 116.419 89.0185C116.354 89.1883 116.322 89.379 116.322 89.5927C116.322 89.8064 116.355 89.9978 116.419 90.1668C116.484 90.3359 116.576 90.4818 116.696 90.6047C116.816 90.7276 116.955 90.8214 117.114 90.8862C117.273 90.951 117.445 90.9837 117.629 90.9837C117.813 90.9837 117.985 90.951 118.144 90.8862C118.302 90.8214 118.441 90.7276 118.558 90.6047C118.676 90.4826 118.768 90.3359 118.835 90.1668C118.901 89.997 118.935 89.8064 118.935 89.5927C118.935 89.379 118.901 89.1876 118.835 89.0185C118.768 88.8495 118.676 88.7035 118.558 88.5807C118.441 88.4578 118.303 88.364 118.144 88.2992C117.985 88.2344 117.813 88.2016 117.629 88.2016C117.445 88.2016 117.273 88.2344 117.114 88.2992C116.955 88.364 116.816 88.4578 116.696 88.5807ZM123.107 90.3337L121.789 87.1576H120.318L122.384 92.0271H123.731L125.805 87.1576H124.45L123.107 90.3337ZM127.47 90.0656V90.9562H130V92.0271H126.122V87.1576H129.91V88.2292H127.47V89.0431H129.62V90.0656H127.47ZM73.9508 53.7477C73.5786 54.1223 73.0622 54.3375 72.5362 54.3375C72.0094 54.3375 71.493 54.1223 71.1216 53.7477C70.7494 53.3732 70.5356 52.8549 70.5356 52.3239C70.5356 51.793 70.7494 51.2747 71.1216 50.8993C71.4937 50.5248 72.0094 50.3103 72.5362 50.3103C73.063 50.3103 73.5786 50.5248 73.9508 50.8993C74.3237 51.2747 74.5368 51.7937 74.5368 52.3239C74.5368 52.8541 74.3237 53.3724 73.9508 53.7477ZM71.9458 67.6031C72.4718 67.6031 72.9882 67.3879 73.3604 67.0134C73.7325 66.6388 73.9464 66.1198 73.9464 65.5895C73.9464 65.0593 73.7325 64.5403 73.3604 64.165C72.989 63.7912 72.4726 63.5759 71.9458 63.5759C71.419 63.5759 70.9033 63.7904 70.5304 64.165C70.1583 64.5403 69.9452 65.0586 69.9452 65.5895C69.9452 66.1205 70.1583 66.6388 70.5304 67.0134C70.9033 67.3879 71.4183 67.6031 71.9458 67.6031ZM110.062 58.9917C110.587 57.8951 112.228 54.4698 115.062 53.3598L115.061 53.3605C117.53 52.3738 120.073 53.6174 121.259 54.3442L122.919 53.324C123.499 52.9941 124.327 53.2175 124.655 53.8014C125.063 54.4157 124.841 55.249 124.211 55.4679L122.19 56.7183C121.628 57.973 120.04 61.2243 117.271 62.281C115.602 62.8387 114.046 62.6131 112.769 62.1268C111.606 61.6838 110.752 61.0578 110.426 60.8191C110.349 60.7629 110.302 60.7282 110.287 60.7224C109.868 60.3791 109.73 59.7759 109.911 59.2941C109.942 59.2413 109.992 59.1369 110.062 58.9917ZM116.341 59.9062C117.74 59.3373 118.864 57.562 119.587 56.3683C118.659 55.9229 117.253 55.2959 115.963 55.815C114.484 56.3534 113.361 58.1287 112.718 59.3529C113.645 59.7982 115.051 60.4252 116.341 59.9062ZM114.814 40.3101C115.156 40.3101 115.497 40.2244 115.668 39.9668L117.374 38.2495C117.886 37.7342 117.886 36.962 117.374 36.4459C116.862 35.9306 116.094 35.9306 115.582 36.4459L113.876 38.1632C113.364 38.6785 113.364 39.4507 113.876 39.9668C114.132 40.138 114.473 40.3101 114.814 40.3101H114.814ZM114.644 46.0627C114.388 45.3753 114.644 44.6031 115.326 44.3454L117.545 43.4012C118.227 43.1443 118.995 43.4012 119.251 44.0885C119.506 44.7759 119.251 45.5481 118.568 45.8057L116.35 46.75C116.179 46.8356 116.009 46.8356 115.838 46.8356C115.326 46.8356 114.814 46.578 114.644 46.0627ZM36.4571 32.4887C36.5422 33.176 37.1393 33.605 37.7363 33.605H37.9072C38.6752 33.5193 39.1014 32.832 38.9305 32.1461L38.5894 29.7416C38.5043 28.9686 37.8214 28.5397 37.1393 28.6253C36.4564 28.7966 36.0302 29.3983 36.1161 30.0841L36.4571 32.4887ZM16.7806 39.2727C16.9515 39.5304 17.2934 39.616 17.6337 39.616C17.9755 39.616 18.3166 39.444 18.5718 39.2727C19.0838 38.7567 19.0838 37.9844 18.5718 37.4691L16.8657 35.7519C16.353 35.2366 15.5858 35.2366 15.0738 35.7519C14.5618 36.2679 14.5618 37.0402 15.0738 37.5555L16.7799 39.2727H16.7806ZM16.0985 46.0552L13.8804 45.111C13.1976 44.8533 12.9416 44.0803 13.1976 43.3938C13.4535 42.7064 14.2215 42.4488 14.9037 42.7064L17.1217 43.6507C17.8046 43.9083 18.0606 44.6813 17.8046 45.3679C17.6337 45.8832 17.1225 46.1409 16.6105 46.1409C16.4396 46.1409 16.2694 46.1409 16.0985 46.0552ZM8.12364 54.7977L10.1442 56.048C10.7065 57.3028 12.2942 60.5541 15.0627 61.6108C16.7319 62.1685 18.2885 61.9429 19.5655 61.4566C20.7278 61.0136 21.5823 60.3877 21.9083 60.149L21.9083 60.1489L21.9084 60.1488C21.9851 60.0927 22.0325 60.058 22.0477 60.0522C22.4665 59.7089 22.6041 59.1057 22.4228 58.6239C22.3925 58.5714 22.3429 58.4679 22.274 58.3239L22.274 58.3238L22.2739 58.3238C21.7502 57.2296 20.1089 53.8003 17.2734 52.6895C14.8045 51.7021 12.2624 52.9457 11.0757 53.6733L9.41543 52.6531C8.83539 52.3232 8.00675 52.5466 7.67899 53.1304C7.27133 53.7448 7.49329 54.578 8.12364 54.797V54.7977ZM16.3708 55.1455C17.8505 55.6839 18.9736 57.4592 19.6166 58.6834C18.6895 59.1288 17.2831 59.7558 15.9935 59.2367C14.5944 58.6678 13.4706 56.8925 12.7477 55.6988C13.6748 55.2535 15.0812 54.6265 16.3708 55.1455ZM67.2795 82.5845L65.6185 86.751H68.9412L67.2795 82.5845ZM55.572 83.7723C55.572 84.3807 55.3804 84.8521 54.9986 85.1872C54.6161 85.5223 54.0427 85.6898 53.2784 85.6898H51.2623V81.8734H53.2784C54.0427 81.8734 54.6161 82.0447 54.9986 82.3857C55.3804 82.7268 55.572 83.1639 55.572 83.7723Z" fill="white"/>
</g>

</symbol><symbol id="mail" viewBox="0 0 25 19">
<path d="M23.6123 0H1.08377C0.604495 0 0.217285 0.385937 0.217285 0.863636V18.1364C0.217285 18.6141 0.604495 19 1.08377 19H23.6123C24.0916 19 24.4788 18.6141 24.4788 18.1364V0.863636C24.4788 0.385937 24.0916 0 23.6123 0ZM21.4245 2.93906L12.8815 9.56477C12.6703 9.7294 12.3751 9.7294 12.1639 9.56477L3.61823 2.93906C3.58602 2.91428 3.56239 2.88008 3.55066 2.84124C3.53893 2.80241 3.53969 2.76088 3.55282 2.7225C3.56596 2.68411 3.59082 2.65078 3.62391 2.62719C3.65701 2.60359 3.69668 2.5909 3.73737 2.59091H21.3053C21.346 2.5909 21.3857 2.60359 21.4188 2.62719C21.4519 2.65078 21.4767 2.68411 21.4899 2.7225C21.503 2.76088 21.5038 2.80241 21.492 2.84124C21.4803 2.88008 21.4567 2.91428 21.4245 2.93906Z" fill="#A5340F"/>
</symbol><symbol id="minus" viewBox="0 0 8 2">
<path d="M0.0493164 1.385V0.38H7.54932V1.385H0.0493164Z" fill="white"/>
</symbol><symbol id="phone" viewBox="0 0 23 23">
<path d="M11.5 0C5.14872 0 0 5.14872 0 11.5C0 17.8513 5.14872 23 11.5 23C17.8513 23 23 17.8513 23 11.5C23 5.14872 17.8513 0 11.5 0ZM7.36719 4.56799C7.60413 4.55402 7.81829 4.69564 7.98065 4.94701L9.55292 7.92869C9.71846 8.28201 9.62439 8.66032 9.37745 8.91277L8.6573 9.63292C8.61285 9.69383 8.5836 9.76243 8.58289 9.83787C8.85906 10.9069 9.6968 11.893 10.4359 12.5711C11.175 13.2492 11.9694 14.1673 13.0007 14.3848C13.1281 14.4204 13.2843 14.4331 13.3755 14.3483L14.2122 13.4962C14.501 13.2773 14.9188 13.1712 15.2271 13.3502H15.2411L18.0782 15.025C18.4947 15.286 18.5378 15.7906 18.2397 16.0975L16.2856 18.0361C15.997 18.3321 15.6136 18.4316 15.2412 18.432C13.5938 18.3827 12.0373 17.5741 10.7588 16.7432C8.66027 15.2166 6.7353 13.323 5.5268 11.0353C5.06332 10.0761 4.51885 8.85207 4.57081 7.78134C4.57545 7.37853 4.68443 6.98391 4.9681 6.72428L6.92219 4.77018C7.07442 4.64065 7.22501 4.57639 7.36719 4.56799Z" fill="#A5340F"/>
</symbol><symbol id="plus" viewBox="0 0 8 8">
<path d="M3.16908 7.035V0.465H4.42908V7.035H3.16908ZM0.439082 4.35V3.165H7.15908V4.35H0.439082Z" fill="white"/>
</symbol><symbol id="send" viewBox="0 0 28 28">
<path fill-rule="evenodd" clip-rule="evenodd" d="M20.5215 7.02854C20.6423 7.03367 20.7615 7.08234 20.8537 7.17454C20.9983 7.3191 21.0358 7.53016 20.9663 7.70925L15.7416 22.6371C15.6739 22.8306 15.4949 22.9632 15.29 22.9715C15.0852 22.9799 14.896 22.8623 14.8127 22.675L11.9021 16.126L5.35309 13.2153C5.16575 13.1321 5.04821 12.9429 5.05657 12.7381C5.06493 12.5332 5.19748 12.3542 5.39098 12.2865L20.3275 7.05873C20.3544 7.04885 20.382 7.04136 20.4099 7.03626C20.447 7.02946 20.4844 7.02694 20.5215 7.02854ZM18.5974 8.72373L6.91169 12.8137L12.1703 15.1509L18.5974 8.72373ZM12.8773 15.8581L19.3042 9.4312L15.2143 21.1164L12.8773 15.8581Z" fill="#999999"/>
<path d="M14.0282 26.4719C7.1401 26.4719 1.55615 20.8881 1.55615 14H-0.443848C-0.443848 21.9926 6.03554 28.4719 14.0282 28.4719V26.4719ZM26.5002 14C26.5002 20.8881 20.9162 26.4719 14.0282 26.4719V28.4719C22.0208 28.4719 28.5002 21.9926 28.5002 14H26.5002ZM14.0282 1.52808C20.9162 1.52808 26.5002 7.11196 26.5002 14H28.5002C28.5002 6.00738 22.0208 -0.471924 14.0282 -0.471924V1.52808ZM14.0282 -0.471924C6.03554 -0.471924 -0.443848 6.00738 -0.443848 14H1.55615C1.55615 7.11196 7.1401 1.52808 14.0282 1.52808V-0.471924Z" fill="#999999"/>
</symbol><symbol id="social" viewBox="0 0 10 19">
<path d="M6.48768 19V10.3336H9.43662L9.87676 6.95567H6.48768V4.8021C6.48768 3.82084 6.76057 3.16088 8.18662 3.16088H10V0.130256C9.6831 0.0868373 8.60916 0 7.35916 0C4.74472 0 2.95775 1.57176 2.95775 4.46344V6.95567H0V10.3336H2.95775V19H6.48768Z" fill="#ffffff"/>
</symbol><symbol id="social2" viewBox="0 0 19 19">
<path d="M9.47408 1.70708C12.0038 1.70708 12.3034 1.71671 13.3024 1.76229C14.2261 1.80445 14.7278 1.95879 15.0617 2.0885C15.5038 2.26036 15.8195 2.4657 16.151 2.79721C16.4825 3.12872 16.6878 3.44436 16.8597 3.88655C16.9894 4.22043 17.1438 4.72207 17.1859 5.64575C17.2315 6.6448 17.2411 6.94442 17.2411 9.47412C17.2411 12.0038 17.2315 12.3034 17.1859 13.3025C17.1438 14.2262 16.9894 14.7278 16.8597 15.0617C16.6878 15.5039 16.4825 15.8195 16.151 16.151C15.8195 16.4825 15.5038 16.6879 15.0617 16.8597C14.7278 16.9895 14.2261 17.1438 13.3024 17.186C12.3036 17.2315 12.0039 17.2412 9.47408 17.2412C6.94423 17.2412 6.64461 17.2315 5.64575 17.186C4.72204 17.1438 4.22039 16.9895 3.88655 16.8597C3.44432 16.6879 3.12868 16.4825 2.79717 16.151C2.46566 15.8195 2.26032 15.5039 2.0885 15.0617C1.95875 14.7278 1.80441 14.2262 1.76225 13.3025C1.71667 12.3034 1.70704 12.0038 1.70704 9.47412C1.70704 6.94442 1.71667 6.6448 1.76225 5.64579C1.80441 4.72207 1.95875 4.22043 2.0885 3.88655C2.26032 3.44436 2.46566 3.12872 2.79717 2.79721C3.12868 2.4657 3.44432 2.26036 3.88655 2.0885C4.22039 1.95879 4.72204 1.80445 5.64572 1.76229C6.64476 1.71671 6.94438 1.70708 9.47408 1.70708ZM9.47408 0C6.90105 0 6.57846 0.0109062 5.56794 0.057013C4.5595 0.103045 3.87083 0.263177 3.26817 0.497397C2.64516 0.739514 2.11681 1.06347 1.59012 1.59016C1.06343 2.11685 0.739477 2.6452 0.497359 3.26821C0.26314 3.87087 0.103007 4.55954 0.0569754 5.56798C0.0108686 6.57846 0 6.90109 0 9.47412C0 12.0472 0.0108686 12.3698 0.0569754 13.3803C0.103007 14.3887 0.26314 15.0774 0.497359 15.68C0.739477 16.303 1.06343 16.8314 1.59012 17.3581C2.11681 17.8848 2.64516 18.2087 3.26817 18.4508C3.87083 18.6851 4.5595 18.8452 5.56794 18.8912C6.57846 18.9373 6.90105 18.9482 9.47408 18.9482C12.0471 18.9482 12.3698 18.9373 13.3802 18.8912C14.3887 18.8452 15.0773 18.6851 15.68 18.4508C16.303 18.2087 16.8314 17.8848 17.358 17.3581C17.8847 16.8314 18.2087 16.303 18.4508 15.68C18.685 15.0774 18.8452 14.3887 18.8912 13.3803C18.9373 12.3698 18.9482 12.0472 18.9482 9.47412C18.9482 6.90109 18.9373 6.57846 18.8912 5.56798C18.8452 4.55954 18.685 3.87087 18.4508 3.26821C18.2087 2.6452 17.8847 2.11685 17.358 1.59016C16.8314 1.06347 16.303 0.739514 15.68 0.497397C15.0773 0.263177 14.3887 0.103045 13.3802 0.057013C12.3698 0.0109062 12.0471 0 9.47408 0ZM9.47408 4.60903C6.78718 4.60903 4.60899 6.78722 4.60899 9.47412C4.60899 12.161 6.78718 14.3392 9.47408 14.3392C12.161 14.3392 14.3392 12.161 14.3392 9.47412C14.3392 6.78722 12.161 4.60903 9.47408 4.60903ZM9.47408 12.6322C7.72996 12.6322 6.31603 11.2182 6.31603 9.47412C6.31603 7.73 7.72996 6.31607 9.47408 6.31607C11.2182 6.31607 12.6321 7.73 12.6321 9.47412C12.6321 11.2182 11.2182 12.6322 9.47408 12.6322ZM15.6683 4.41681C15.6683 5.04471 15.1593 5.55373 14.5314 5.55373C13.9035 5.55373 13.3945 5.04471 13.3945 4.41681C13.3945 3.78892 13.9035 3.27994 14.5314 3.27994C15.1593 3.27994 15.6683 3.78892 15.6683 4.41681Z" fill="#ffffff"/>
</symbol><symbol id="social3" viewBox="0 0 20 21">
<path d="M19 6.125C17.8065 6.125 16.6619 5.65089 15.818 4.80698C14.9741 3.96307 14.5 2.81847 14.5 1.625C14.5 1.42609 14.421 1.23532 14.2803 1.09467C14.1397 0.954018 13.9489 0.875 13.75 0.875H10C9.80109 0.875 9.61032 0.954018 9.46967 1.09467C9.32902 1.23532 9.25 1.42609 9.25 1.625V13.625C9.24927 13.9602 9.15867 14.2892 8.98764 14.5775C8.8166 14.8658 8.57139 15.103 8.27753 15.2644C7.98368 15.4258 7.65193 15.5054 7.31685 15.495C6.98176 15.4846 6.65559 15.3846 6.37231 15.2053C6.08903 15.026 5.85899 14.7741 5.70616 14.4757C5.55334 14.1773 5.4833 13.8434 5.50336 13.5087C5.52342 13.1741 5.63284 12.8509 5.82022 12.5729C6.00759 12.295 6.26608 12.0723 6.56875 11.9281C6.69778 11.8688 6.80704 11.7736 6.8835 11.654C6.95996 11.5343 7.0004 11.3951 7 11.2531V7.35312C7.00186 7.24195 6.97834 7.13181 6.93123 7.03109C6.88411 6.93036 6.81465 6.84171 6.72812 6.77188C6.64418 6.70271 6.5462 6.65264 6.44098 6.62512C6.33575 6.5976 6.2258 6.59329 6.11875 6.6125C4.78449 6.8515 3.54609 7.46614 2.5489 8.38428C1.55171 9.30242 0.837116 10.486 0.488989 11.796C0.140863 13.106 0.17365 14.4882 0.583504 15.7802C0.993358 17.0723 1.76327 18.2206 2.80287 19.0904C3.84248 19.9602 5.10863 20.5155 6.45272 20.6909C7.79681 20.8664 9.16307 20.6548 10.3911 20.081C11.6192 19.5072 12.6581 18.595 13.3859 17.4515C14.1137 16.3079 14.5002 14.9805 14.5 13.625V10.2781C15.8891 11.0027 17.4333 11.3791 19 11.375C19.1989 11.375 19.3897 11.296 19.5303 11.1553C19.671 11.0147 19.75 10.8239 19.75 10.625V6.875C19.75 6.67609 19.671 6.48532 19.5303 6.34467C19.3897 6.20402 19.1989 6.125 19 6.125ZM18.25 9.8375C16.786 9.70756 15.3839 9.18622 14.1906 8.32812C14.0777 8.2502 13.9459 8.2043 13.809 8.19531C13.6721 8.18632 13.5353 8.21458 13.4132 8.27707C13.2911 8.33957 13.1882 8.43397 13.1155 8.55025C13.0427 8.66654 13.0028 8.80036 13 8.9375V13.625C12.9995 14.6561 12.7155 15.6672 12.1792 16.5479C11.6428 17.4286 10.8747 18.1448 9.95885 18.6185C9.04296 19.0921 8.01449 19.3049 6.98585 19.2336C5.9572 19.1622 4.96795 18.8095 4.1262 18.214C3.28445 17.6185 2.6226 16.803 2.21295 15.8568C1.80331 14.9105 1.66165 13.8698 1.80344 12.8485C1.94523 11.8272 2.36503 10.8645 3.01696 10.0656C3.66888 9.26676 4.52785 8.66246 5.5 8.31875V10.8219C5.01507 11.1459 4.62238 11.59 4.36022 12.111C4.09805 12.6319 3.97536 13.212 4.0041 13.7945C4.03285 14.377 4.21205 14.9421 4.52423 15.4347C4.83641 15.9273 5.27092 16.3306 5.78539 16.6053C6.29986 16.88 6.87673 17.0167 7.45975 17.0021C8.04278 16.9874 8.61206 16.8219 9.11209 16.5218C9.61212 16.2216 10.0258 15.797 10.3129 15.2893C10.5999 14.7816 10.7505 14.2082 10.75 13.625V2.375H13.0469C13.2149 3.69626 13.8172 4.92425 14.759 5.86605C15.7008 6.80784 16.9287 7.41007 18.25 7.57812V9.8375Z" fill="#ffffff"/>
</symbol><symbol id="social4" viewBox="0 0 21 17">
<path d="M20 1L1 8.5L8 9.5M20 1L17.5 16L8 9.5M20 1L8 9.5M8 9.5V15L11.249 11.723" stroke="white" stroke-width="1.5" stroke-linecap="round" stroke-linejoin="round"/>
</symbol><symbol id="social5" viewBox="0 0 24 24">
<path d="M11.3986 0.00373641C9.4726 0.0269864 5.33185 0.343486 3.01585 2.46824C1.2931 4.17524 0.691604 6.69899 0.621104 9.81974C0.562604 12.9292 0.492104 18.7687 6.12085 20.3587V22.7805C6.12085 22.7805 6.08561 23.7495 6.7261 23.9482C7.51511 24.198 7.96435 23.4525 8.71436 22.6515L10.1131 21.0697C13.9644 21.39 16.9141 20.652 17.2539 20.5425C18.0354 20.2927 22.4371 19.7302 23.1564 13.89C23.8944 7.85849 22.7971 4.05824 20.8164 2.33924H20.8044C20.2066 1.78874 17.8044 0.0382364 12.4374 0.0187364C12.4374 0.0187364 12.0391 -0.00826359 11.3986 0.00298641V0.00373641ZM11.4646 1.69949C12.0114 1.69574 12.3436 1.71899 12.3436 1.71899C16.8864 1.73099 19.0546 3.09824 19.5661 3.55874C21.2341 4.98824 22.0936 8.41424 21.4644 13.4497C20.8666 18.3322 17.2966 18.6412 16.6359 18.852C16.3546 18.942 13.7566 19.5825 10.4836 19.3717C10.4836 19.3717 8.0461 22.3132 7.2841 23.0707C7.16335 23.2035 7.02235 23.2425 6.93235 23.223C6.80335 23.1915 6.76435 23.0317 6.77185 22.8127L6.7951 18.7935C2.02136 17.4735 2.3026 12.4927 2.3536 9.89099C2.4121 7.28924 2.90035 5.16074 4.35385 3.71924C6.3106 1.94999 9.8266 1.71149 11.4631 1.69949H11.4646ZM11.8246 4.30049C11.7853 4.30009 11.7463 4.30747 11.7099 4.32221C11.6735 4.33695 11.6403 4.35876 11.6124 4.38636C11.5844 4.41397 11.5622 4.44684 11.547 4.48308C11.5318 4.51931 11.524 4.55819 11.5239 4.59749C11.5239 4.76549 11.6604 4.89824 11.8246 4.89824C12.5682 4.88409 13.3073 5.01731 13.9992 5.29021C14.6911 5.5631 15.3221 5.97027 15.8559 6.48824C16.9456 7.54649 17.4766 8.96849 17.4969 10.8277C17.4969 10.992 17.6296 11.1285 17.7976 11.1285V11.1165C17.8768 11.1167 17.9528 11.0856 18.0092 11.0299C18.0655 10.9743 18.0976 10.8987 18.0984 10.8195C18.1348 9.94435 17.9929 9.07095 17.6812 8.25236C17.3696 7.43378 16.8948 6.68711 16.2856 6.05774C15.0984 4.89749 13.5939 4.29974 11.8246 4.29974V4.30049ZM7.87135 4.98824C7.65907 4.95722 7.44255 4.99983 7.25785 5.10899H7.2421C6.8133 5.36034 6.42702 5.67803 6.0976 6.05024C5.82385 6.36674 5.67535 6.68699 5.63635 6.99524C5.6131 7.17899 5.62885 7.36274 5.6836 7.53824L5.7031 7.55024C6.01135 8.45624 6.4141 9.32774 6.90611 10.1482C7.53987 11.301 8.31982 12.367 9.2266 13.32L9.2536 13.359L9.29636 13.3905L9.32335 13.422L9.35485 13.449C10.3113 14.3584 11.3799 15.142 12.5349 15.7807C13.8549 16.4992 14.6559 16.839 15.1366 16.98V16.9875C15.2776 17.0302 15.4059 17.0497 15.5349 17.0497C15.9446 17.0197 16.3324 16.8534 16.6366 16.5772C17.0071 16.2477 17.3213 15.8599 17.5666 15.429V15.4215C17.7969 14.988 17.7189 14.5777 17.3866 14.3002C16.7212 13.7186 16.0017 13.202 15.2379 12.7575C14.7264 12.48 14.2066 12.648 13.9959 12.9292L13.5466 13.4955C13.3164 13.7767 12.8979 13.7377 12.8979 13.7377L12.8859 13.7452C9.7651 12.948 8.9326 9.78824 8.9326 9.78824C8.9326 9.78824 8.8936 9.35849 9.18235 9.13949L9.74485 8.68649C10.0141 8.46749 10.2016 7.94849 9.91286 7.43624C9.47141 6.67135 8.95593 5.95165 8.37385 5.28749C8.2466 5.13091 8.06808 5.02438 7.86985 4.98674L7.87135 4.98824ZM12.3436 5.87924C11.9454 5.87924 11.9454 6.48074 12.3474 6.48074C12.8426 6.48877 13.3313 6.59431 13.7857 6.79134C14.2401 6.98836 14.6513 7.273 14.9956 7.62899C15.3097 7.97549 15.5511 8.38152 15.7054 8.82302C15.8598 9.26451 15.9239 9.73249 15.8941 10.1992C15.8955 10.2782 15.9277 10.3535 15.9839 10.409C16.0401 10.4646 16.1159 10.4959 16.1949 10.4962L16.2069 10.512C16.2864 10.5114 16.3626 10.4795 16.4189 10.4232C16.4751 10.367 16.507 10.2908 16.5076 10.2112C16.5346 9.01949 16.1641 8.01974 15.4374 7.21874C14.7069 6.41774 13.6876 5.96849 12.3864 5.87924H12.3436ZM12.8364 7.49624C12.4261 7.48424 12.4104 8.09774 12.8169 8.10974C13.8054 8.16074 14.2854 8.66024 14.3484 9.68774C14.3497 9.76573 14.3816 9.84009 14.4371 9.8949C14.4926 9.94971 14.5673 9.98061 14.6454 9.98099H14.6574C14.6975 9.97927 14.7368 9.96958 14.7731 9.95248C14.8095 9.93538 14.842 9.91122 14.8689 9.88141C14.8958 9.8516 14.9164 9.81673 14.9297 9.77884C14.943 9.74095 14.9485 9.7008 14.9461 9.66074C14.8756 8.32124 14.1451 7.56674 12.8484 7.49699H12.8364V7.49624Z" fill="#ffffff"/>
</symbol><symbol id="sunshinewhite" viewBox="0 0 32 32">
<path fill-rule="evenodd" clip-rule="evenodd" d="M17.1429 0H14.8571V10.1205L11.0659 0.736931L8.94666 1.59318L12.8361 11.2198L5.49442 3.87816L3.87818 5.49442L10.9148 12.5311L1.79586 8.5469L0.880734 10.6414L10.5297 14.8571H0V17.1429H10.5297L0.880738 21.3586L1.79586 23.4531L10.9148 19.469L3.87818 26.5056L5.49442 28.1218L12.8361 20.7802L8.94666 30.4069L11.0659 31.263L14.8571 21.8795V32H17.1429V21.8795L20.9341 31.263L23.0533 30.4069L19.164 20.7802L26.5056 28.1218L28.1218 26.5056L21.0851 19.469L30.2042 23.4531L31.1192 21.3586L21.4704 17.1429H32V14.8571H21.4702L31.1192 10.6414L30.2042 8.5469L21.0851 12.5311L28.1218 5.4944L26.5056 3.87816L19.164 11.2198L23.0533 1.59318L20.9341 0.736931L17.1429 10.1205V0Z" fill="white"/>
</symbol><symbol id="user" viewBox="0 0 24 24">
<path d="M15 12C17.2091 12 19 10.2091 19 8C19 5.79086 17.2091 4 15 4C12.7909 4 11 5.79086 11 8C11 10.2091 12.7909 12 15 12Z" fill="#A5340F"/>
<path d="M15 20C15 20 23 20 23 18C23 15.6 19.1 13 15 13C10.9 13 7 15.6 7 18C7 20 15 20 15 20ZM6 10V7H4V10H1V12H4V15H6V12H9V10H6Z" fill="#A5340F"/>
</symbol></svg>